<svg width="2267" height="972" version="1.1" xmlns="http://www.w3.org/2000/svg" desc="Created with imagetracer.js version 1.2.6" ><path fill="rgb(0,0,0)" stroke="rgb(0,0,0)" stroke-width="1" opacity="0" d="M 0 0 L 2267 0 L 2267 972 L 0 972 L 0 0 Z M 438 132 Q 368 206 304 286 Q 265 335 231 391 Q 200 441 179 501 L 171 526 L 163 558 L 160 581 L 159 582 L 159 589 L 158 590 L 158 599 L 157 600 L 157 644 L 158 645 L 159 661 L 165 687 Q 178 727 203 755 Q 234 791 282 810 L 310 819 L 334 824 L 348 825 L 349 826 L 359 826 L 360 827 L 395 828 L 397 828 L 399 827 L 417 827 L 418 826 L 429 826 L 430 825 L 447 824 L 508 813 L 568 797 L 643 771 L 800 705 L 2108 145 L 2108 144 L 2100 145 L 2002 172 L 1840 214 L 1791 228 L 1712 248 L 1708 250 L 1633 269 L 1569 287 L 1554 290 L 1475 312 L 1460 315 L 1381 337 L 1366 340 L 1287 362 L 1272 365 L 1178 391 L 1163 394 L 1069 420 L 1054 423 L 960 449 L 885 468 L 881 470 L 866 473 L 768 500 L 719 512 L 715 514 L 700 517 L 696 519 L 639 531 L 618 533 L 617 534 L 609 534 L 608 535 L 598 535 L 597 536 L 581 536 L 580 537 L 534 536 L 533 535 L 511 533 L 489 528 L 455 515 Q 437 506 423 493 Q 398 472 383 443 L 371 411 L 365 377 L 365 337 L 366 336 L 366 327 L 367 326 L 368 312 L 372 291 L 379 264 Q 401 191 438 134 L 438 132 Z " /><path fill="rgb(0,0,0)" stroke="rgb(0,0,0)" stroke-width="1" opacity="0.7529411764705882" d="M 437.5 132 L 438 133.5 L 434.5 139 L 435 137.5 L 434.5 136 L 433 136.5 L 437.5 132 Z " /><path fill="rgb(0,0,0)" stroke="rgb(0,0,0)" stroke-width="1" opacity="0.7529411764705882" d="M 431.5 139 L 423.5 148 L 431.5 139 Z " /><path fill="rgb(0,0,0)" stroke="rgb(0,0,0)" stroke-width="1" opacity="0.7529411764705882" d="M 432.5 142 L 431.5 144 L 432.5 142 Z " /><path fill="rgb(0,0,0)" stroke="rgb(0,0,0)" stroke-width="1" opacity="0.7529411764705882" d="M 2108.5 143 L 2110 143.5 L 2104.5 146 L 2103.5 144 L 2108.5 143 Z " /><path fill="rgb(0,0,0)" stroke="rgb(0,0,0)" stroke-width="1" opacity="0.7529411764705882" d="M 2099.5 145 L 2103 146.5 L 1959.5 208 L 1959.5 207 L 2101 146.5 L 2099.5 145 Z " /><path fill="rgb(0,0,0)" stroke="rgb(0,0,0)" stroke-width="1" opacity="0.7529411764705882" d="M 429.5 147 L 429 148.5 L 427.5 151 L 428 149.5 L 429.5 147 Z " /><path fill="rgb(0,0,0)" stroke="rgb(0,0,0)" stroke-width="1" opacity="0.7529411764705882" d="M 2092.5 147 L 2095 147.5 L 2092.5 148 L 2092.5 147 Z " /><path fill="rgb(0,0,0)" stroke="rgb(0,0,0)" stroke-width="1" opacity="0.7529411764705882" d="M 2088.5 148 L 2091 148.5 L 2088.5 149 L 2088.5 148 Z " /><path fill="rgb(0,0,0)" stroke="rgb(0,0,0)" stroke-width="1" opacity="0.7529411764705882" d="M 2084.5 149 L 2087 149.5 L 2084.5 150 L 2084.5 149 Z " /><path fill="rgb(0,0,0)" stroke="rgb(0,0,0)" stroke-width="1" opacity="0.7529411764705882" d="M 421.5 150 L 413.5 159 L 421.5 150 Z " /><path fill="rgb(0,0,0)" stroke="rgb(0,0,0)" stroke-width="1" opacity="0.7529411764705882" d="M 2077.5 151 L 2080 151.5 L 2077.5 152 L 2077.5 151 Z " /><path fill="rgb(0,0,0)" stroke="rgb(0,0,0)" stroke-width="1" opacity="0.7529411764705882" d="M 2073.5 152 L 2076 152.5 L 2073.5 153 L 2073.5 152 Z " /><path fill="rgb(0,0,0)" stroke="rgb(0,0,0)" stroke-width="1" opacity="0.7529411764705882" d="M 2069.5 153 L 2072 153.5 L 2069.5 154 L 2069.5 153 Z " /><path fill="rgb(0,0,0)" stroke="rgb(0,0,0)" stroke-width="1" opacity="0.7529411764705882" d="M 2062.5 155 L 2065 155.5 L 2062.5 156 L 2062.5 155 Z " /><path fill="rgb(0,0,0)" stroke="rgb(0,0,0)" stroke-width="1" opacity="0.7529411764705882" d="M 424.5 156 L 424 157.5 L 421.5 162 L 422 160.5 L 424.5 156 Z " /><path fill="rgb(0,0,0)" stroke="rgb(0,0,0)" stroke-width="1" opacity="0.7529411764705882" d="M 2058.5 156 L 2061 156.5 L 2058.5 157 L 2058.5 156 Z " /><path fill="rgb(0,0,0)" stroke="rgb(0,0,0)" stroke-width="1" opacity="0.7529411764705882" d="M 2054.5 157 L 2057 157.5 L 2054.5 158 L 2054.5 157 Z " /><path fill="rgb(0,0,0)" stroke="rgb(0,0,0)" stroke-width="1" opacity="0.7529411764705882" d="M 2050.5 158 L 2053 158.5 L 2047.5 160 L 2047.5 159 L 2050.5 158 Z " /><path fill="rgb(0,0,0)" stroke="rgb(0,0,0)" stroke-width="1" opacity="0.7529411764705882" d="M 412.5 160 L 404.5 169 L 412.5 160 Z " /><path fill="rgb(0,0,0)" stroke="rgb(0,0,0)" stroke-width="1" opacity="0.7529411764705882" d="M 2043.5 160 L 2046 160.5 L 2043.5 161 L 2043.5 160 Z " /><path fill="rgb(0,0,0)" stroke="rgb(0,0,0)" stroke-width="1" opacity="0.7529411764705882" d="M 2039.5 161 L 2042 161.5 L 2039.5 162 L 2039.5 161 Z " /><path fill="rgb(0,0,0)" stroke="rgb(0,0,0)" stroke-width="1" opacity="0.7529411764705882" d="M 2035.5 162 L 2038 162.5 L 2032.5 164 L 2032.5 163 L 2035.5 162 Z " /><path fill="rgb(0,0,0)" stroke="rgb(0,0,0)" stroke-width="1" opacity="0.7529411764705882" d="M 2028.5 164 L 2031 164.5 L 2028.5 165 L 2028.5 164 Z " /><path fill="rgb(0,0,0)" stroke="rgb(0,0,0)" stroke-width="1" opacity="0.7529411764705882" d="M 2024.5 165 L 2027 165.5 L 2024.5 166 L 2024.5 165 Z " /><path fill="rgb(0,0,0)" stroke="rgb(0,0,0)" stroke-width="1" opacity="0.7529411764705882" d="M 2020.5 166 L 2023 166.5 L 2017.5 168 L 2017.5 167 L 2020.5 166 Z " /><path fill="rgb(0,0,0)" stroke="rgb(0,0,0)" stroke-width="1" opacity="0.7529411764705882" d="M 2013.5 168 L 2016 168.5 L 2013.5 169 L 2013.5 168 Z " /><path fill="rgb(0,0,0)" stroke="rgb(0,0,0)" stroke-width="1" opacity="0.7529411764705882" d="M 2009.5 169 L 2012 169.5 L 2009.5 170 L 2009.5 169 Z " /><path fill="rgb(0,0,0)" stroke="rgb(0,0,0)" stroke-width="1" opacity="0.7529411764705882" d="M 403.5 170 L 395.5 179 L 403.5 170 Z " /><path fill="rgb(0,0,0)" stroke="rgb(0,0,0)" stroke-width="1" opacity="0.7529411764705882" d="M 2005.5 170 L 2008 170.5 L 2005.5 171 L 2005.5 170 Z " /><path fill="rgb(0,0,0)" stroke="rgb(0,0,0)" stroke-width="1" opacity="0.7529411764705882" d="M 1998.5 172 L 2001 172.5 L 1998.5 173 L 1998.5 172 Z " /><path fill="rgb(0,0,0)" stroke="rgb(0,0,0)" stroke-width="1" opacity="0.7529411764705882" d="M 1994.5 173 L 1997 173.5 L 1994.5 174 L 1994.5 173 Z " /><path fill="rgb(0,0,0)" stroke="rgb(0,0,0)" stroke-width="1" opacity="0.7529411764705882" d="M 1990.5 174 L 1993 174.5 L 1990.5 175 L 1990.5 174 Z " /><path fill="rgb(0,0,0)" stroke="rgb(0,0,0)" stroke-width="1" opacity="0.7529411764705882" d="M 1986.5 175 L 1989 175.5 L 1983.5 177 L 1983.5 176 L 1986.5 175 Z " /><path fill="rgb(0,0,0)" stroke="rgb(0,0,0)" stroke-width="1" opacity="0.7529411764705882" d="M 1979.5 177 L 1982 177.5 L 1979.5 178 L 1979.5 177 Z " /><path fill="rgb(0,0,0)" stroke="rgb(0,0,0)" stroke-width="1" opacity="0.7529411764705882" d="M 1975.5 178 L 1978 178.5 L 1975.5 179 L 1975.5 178 Z " /><path fill="rgb(0,0,0)" stroke="rgb(0,0,0)" stroke-width="1" opacity="0.7529411764705882" d="M 1971.5 179 L 1974 179.5 L 1968.5 181 L 1968.5 180 L 1971.5 179 Z " /><path fill="rgb(0,0,0)" stroke="rgb(0,0,0)" stroke-width="1" opacity="0.7529411764705882" d="M 394.5 180 L 386 189.5 L 370.5 207 L 377 199.5 L 394.5 180 Z " /><path fill="rgb(0,0,0)" stroke="rgb(0,0,0)" stroke-width="1" opacity="0.7529411764705882" d="M 1964.5 181 L 1967 181.5 L 1964.5 182 L 1964.5 181 Z " /><path fill="rgb(0,0,0)" stroke="rgb(0,0,0)" stroke-width="1" opacity="0.7529411764705882" d="M 1960.5 182 L 1963 182.5 L 1960.5 183 L 1960.5 182 Z " /><path fill="rgb(0,0,0)" stroke="rgb(0,0,0)" stroke-width="1" opacity="0.7529411764705882" d="M 1956.5 183 L 1959 183.5 L 1953.5 185 L 1953.5 184 L 1956.5 183 Z " /><path fill="rgb(0,0,0)" stroke="rgb(0,0,0)" stroke-width="1" opacity="0.7529411764705882" d="M 1949.5 185 L 1952 185.5 L 1949.5 186 L 1949.5 185 Z " /><path fill="rgb(0,0,0)" stroke="rgb(0,0,0)" stroke-width="1" opacity="0.7529411764705882" d="M 1945.5 186 L 1948 186.5 L 1945.5 187 L 1945.5 186 Z " /><path fill="rgb(0,0,0)" stroke="rgb(0,0,0)" stroke-width="1" opacity="0.7529411764705882" d="M 1941.5 187 L 1944 187.5 L 1934.5 190 L 1934.5 189 L 1941.5 187 Z " /><path fill="rgb(0,0,0)" stroke="rgb(0,0,0)" stroke-width="1" opacity="0.7529411764705882" d="M 1930.5 190 L 1933 190.5 L 1930.5 191 L 1930.5 190 Z " /><path fill="rgb(0,0,0)" stroke="rgb(0,0,0)" stroke-width="1" opacity="0.7529411764705882" d="M 406.5 191 L 407 192.5 L 405.5 195 L 405 193.5 L 406.5 191 Z " /><path fill="rgb(0,0,0)" stroke="rgb(0,0,0)" stroke-width="1" opacity="0.7529411764705882" d="M 1926.5 191 L 1929 191.5 L 1919.5 194 L 1919.5 193 L 1926.5 191 Z " /><path fill="rgb(0,0,0)" stroke="rgb(0,0,0)" stroke-width="1" opacity="0.7529411764705882" d="M 1915.5 194 L 1918 194.5 L 1915.5 195 L 1915.5 194 Z " /><path fill="rgb(0,0,0)" stroke="rgb(0,0,0)" stroke-width="1" opacity="0.7529411764705882" d="M 1911.5 195 L 1914 195.5 L 1904.5 198 L 1904.5 197 L 1911.5 195 Z " /><path fill="rgb(0,0,0)" stroke="rgb(0,0,0)" stroke-width="1" opacity="0.7529411764705882" d="M 1900.5 198 L 1903 198.5 L 1900.5 199 L 1900.5 198 Z " /><path fill="rgb(0,0,0)" stroke="rgb(0,0,0)" stroke-width="1" opacity="0.7529411764705882" d="M 1896.5 199 L 1899 199.5 L 1885.5 203 L 1885.5 202 L 1896.5 199 Z " /><path fill="rgb(0,0,0)" stroke="rgb(0,0,0)" stroke-width="1" opacity="0.7529411764705882" d="M 402.5 200 L 403 201.5 L 401.5 204 L 401 202.5 L 402.5 200 Z " /><path fill="rgb(0,0,0)" stroke="rgb(0,0,0)" stroke-width="1" opacity="0.7529411764705882" d="M 1881.5 203 L 1884 203.5 L 1881.5 204 L 1881.5 203 Z " /><path fill="rgb(0,0,0)" stroke="rgb(0,0,0)" stroke-width="1" opacity="0.7529411764705882" d="M 1877.5 204 L 1880 204.5 L 1870.5 207 L 1870.5 206 L 1877.5 204 Z " /><path fill="rgb(0,0,0)" stroke="rgb(0,0,0)" stroke-width="1" opacity="0.7529411764705882" d="M 1866.5 207 L 1869 207.5 L 1866.5 208 L 1866.5 207 Z " /><path fill="rgb(0,0,0)" stroke="rgb(0,0,0)" stroke-width="1" opacity="0.7529411764705882" d="M 369.5 208 L 363.5 215 L 369.5 208 Z " /><path fill="rgb(0,0,0)" stroke="rgb(0,0,0)" stroke-width="1" opacity="0.7529411764705882" d="M 1862.5 208 L 1865 208.5 L 1855.5 211 L 1855.5 210 L 1862.5 208 Z " /><path fill="rgb(0,0,0)" stroke="rgb(0,0,0)" stroke-width="1" opacity="0.7529411764705882" d="M 1956.5 208 L 1958 208.5 L 1952.5 211 L 1952.5 210 L 1956.5 208 Z " /><path fill="rgb(0,0,0)" stroke="rgb(0,0,0)" stroke-width="1" opacity="0.7529411764705882" d="M 1851.5 211 L 1854 211.5 L 1851.5 212 L 1851.5 211 Z " /><path fill="rgb(0,0,0)" stroke="rgb(0,0,0)" stroke-width="1" opacity="0.7529411764705882" d="M 1949.5 211 L 1951 211.5 L 1945.5 214 L 1945.5 213 L 1949.5 211 Z " /><path fill="rgb(0,0,0)" stroke="rgb(0,0,0)" stroke-width="1" opacity="0.7529411764705882" d="M 1847.5 212 L 1850 212.5 L 1836.5 216 L 1836.5 215 L 1847.5 212 Z " /><path fill="rgb(0,0,0)" stroke="rgb(0,0,0)" stroke-width="1" opacity="0.7529411764705882" d="M 396.5 214 L 397 215.5 L 395.5 218 L 395 216.5 L 396.5 214 Z " /><path fill="rgb(0,0,0)" stroke="rgb(0,0,0)" stroke-width="1" opacity="0.7529411764705882" d="M 1942.5 214 L 1944 214.5 L 1938.5 217 L 1938.5 216 L 1942.5 214 Z " /><path fill="rgb(0,0,0)" stroke="rgb(0,0,0)" stroke-width="1" opacity="0.7529411764705882" d="M 362.5 216 L 357.5 222 L 362.5 216 Z " /><path fill="rgb(0,0,0)" stroke="rgb(0,0,0)" stroke-width="1" opacity="0.7529411764705882" d="M 1832.5 216 L 1835 216.5 L 1821.5 220 L 1821.5 219 L 1832.5 216 Z " /><path fill="rgb(0,0,0)" stroke="rgb(0,0,0)" stroke-width="1" opacity="0.7529411764705882" d="M 1935.5 217 L 1937 217.5 L 1931.5 220 L 1931.5 219 L 1935.5 217 Z " /><path fill="rgb(0,0,0)" stroke="rgb(0,0,0)" stroke-width="1" opacity="0.7529411764705882" d="M 1817.5 220 L 1820 220.5 L 1806.5 224 L 1806.5 223 L 1817.5 220 Z " /><path fill="rgb(0,0,0)" stroke="rgb(0,0,0)" stroke-width="1" opacity="0.7529411764705882" d="M 1928.5 220 L 1930 220.5 L 1924.5 223 L 1924.5 222 L 1928.5 220 Z " /><path fill="rgb(0,0,0)" stroke="rgb(0,0,0)" stroke-width="1" opacity="0.7529411764705882" d="M 356.5 223 L 351 229.5 Q 301.7 286.2 258.5 349 L 260 346.5 Q 304.1 280.6 356.5 223 Z " /><path fill="rgb(0,0,0)" stroke="rgb(0,0,0)" stroke-width="1" opacity="0.7529411764705882" d="M 1921.5 223 L 1923 223.5 L 1917.5 226 L 1917.5 225 L 1921.5 223 Z " /><path fill="rgb(0,0,0)" stroke="rgb(0,0,0)" stroke-width="1" opacity="0.7529411764705882" d="M 392.5 224 L 393 225.5 L 391.5 228 L 391 226.5 L 392.5 224 Z " /><path fill="rgb(0,0,0)" stroke="rgb(0,0,0)" stroke-width="1" opacity="0.7529411764705882" d="M 1802.5 224 L 1805 224.5 L 1791.5 228 L 1791.5 227 L 1802.5 224 Z " /><path fill="rgb(0,0,0)" stroke="rgb(0,0,0)" stroke-width="1" opacity="0.7529411764705882" d="M 1914.5 226 L 1916 226.5 L 1910.5 229 L 1910.5 228 L 1914.5 226 Z " /><path fill="rgb(0,0,0)" stroke="rgb(0,0,0)" stroke-width="1" opacity="0.7529411764705882" d="M 1787.5 228 L 1790 228.5 L 1772.5 233 L 1772.5 232 L 1787.5 228 Z " /><path fill="rgb(0,0,0)" stroke="rgb(0,0,0)" stroke-width="1" opacity="0.7529411764705882" d="M 1907.5 229 L 1909 229.5 L 1903.5 232 L 1903.5 231 L 1907.5 229 Z " /><path fill="rgb(0,0,0)" stroke="rgb(0,0,0)" stroke-width="1" opacity="0.7529411764705882" d="M 1900.5 232 L 1902 232.5 L 1896.5 235 L 1896.5 234 L 1900.5 232 Z " /><path fill="rgb(0,0,0)" stroke="rgb(0,0,0)" stroke-width="1" opacity="0.7529411764705882" d="M 1768.5 233 L 1771 233.5 L 1757.5 237 L 1757.5 236 L 1768.5 233 Z " /><path fill="rgb(0,0,0)" stroke="rgb(0,0,0)" stroke-width="1" opacity="0.7529411764705882" d="M 1893.5 235 L 1895 235.5 L 1758.5 294 L 1758.5 293 L 1893.5 235 Z " /><path fill="rgb(0,0,0)" stroke="rgb(0,0,0)" stroke-width="1" opacity="0.7529411764705882" d="M 1753.5 237 L 1756 237.5 L 1742.5 241 L 1742.5 240 L 1753.5 237 Z " /><path fill="rgb(0,0,0)" stroke="rgb(0,0,0)" stroke-width="1" opacity="0.7529411764705882" d="M 1738.5 241 L 1741 241.5 L 1727.5 245 L 1727.5 244 L 1738.5 241 Z " /><path fill="rgb(0,0,0)" stroke="rgb(0,0,0)" stroke-width="1" opacity="0.7529411764705882" d="M 1723.5 245 L 1726 245.5 L 1663.5 262 L 1663.5 261 L 1723.5 245 Z " /><path fill="rgb(0,0,0)" stroke="rgb(0,0,0)" stroke-width="1" opacity="0.7529411764705882" d="M 1659.5 262 L 1662 262.5 L 1648.5 266 L 1648.5 265 L 1659.5 262 Z " /><path fill="rgb(0,0,0)" stroke="rgb(0,0,0)" stroke-width="1" opacity="0.7529411764705882" d="M 378.5 264 L 379 266.5 L 378 266.5 L 378.5 264 Z " /><path fill="rgb(0,0,0)" stroke="rgb(0,0,0)" stroke-width="1" opacity="0.7529411764705882" d="M 1644.5 266 L 1647 266.5 L 1614.5 275 L 1614.5 274 L 1644.5 266 Z " /><path fill="rgb(0,0,0)" stroke="rgb(0,0,0)" stroke-width="1" opacity="0.7529411764705882" d="M 375.5 275 L 376 277.5 L 375 277.5 L 375.5 275 Z " /><path fill="rgb(0,0,0)" stroke="rgb(0,0,0)" stroke-width="1" opacity="0.7529411764705882" d="M 1610.5 275 L 1613 275.5 L 1599.5 279 L 1599.5 278 L 1610.5 275 Z " /><path fill="rgb(0,0,0)" stroke="rgb(0,0,0)" stroke-width="1" opacity="0.7529411764705882" d="M 374.5 279 L 375 281.5 L 374 281.5 L 374.5 279 Z " /><path fill="rgb(0,0,0)" stroke="rgb(0,0,0)" stroke-width="1" opacity="0.7529411764705882" d="M 1595.5 279 L 1598 279.5 L 1584.5 283 L 1584.5 282 L 1595.5 279 Z " /><path fill="rgb(0,0,0)" stroke="rgb(0,0,0)" stroke-width="1" opacity="0.7529411764705882" d="M 373.5 283 L 374 285.5 L 373 285.5 L 373.5 283 Z " /><path fill="rgb(0,0,0)" stroke="rgb(0,0,0)" stroke-width="1" opacity="0.7529411764705882" d="M 1580.5 283 L 1583 283.5 L 1569.5 287 L 1569.5 286 L 1580.5 283 Z " /><path fill="rgb(0,0,0)" stroke="rgb(0,0,0)" stroke-width="1" opacity="0.7529411764705882" d="M 1565.5 287 L 1568 287.5 L 1505.5 304 L 1505.5 303 L 1565.5 287 Z " /><path fill="rgb(0,0,0)" stroke="rgb(0,0,0)" stroke-width="1" opacity="0.7529411764705882" d="M 371.5 292 L 372 294.5 L 371 294.5 L 371.5 292 Z " /><path fill="rgb(0,0,0)" stroke="rgb(0,0,0)" stroke-width="1" opacity="0.7529411764705882" d="M 1755.5 294 L 1757 294.5 L 1751.5 297 L 1751.5 296 L 1755.5 294 Z " /><path fill="rgb(0,0,0)" stroke="rgb(0,0,0)" stroke-width="1" opacity="0.7529411764705882" d="M 370.5 297 L 371 299.5 L 370 299.5 L 370.5 297 Z " /><path fill="rgb(0,0,0)" stroke="rgb(0,0,0)" stroke-width="1" opacity="0.7529411764705882" d="M 1748.5 297 L 1750 297.5 L 1744.5 300 L 1744.5 299 L 1748.5 297 Z " /><path fill="rgb(0,0,0)" stroke="rgb(0,0,0)" stroke-width="1" opacity="0.7529411764705882" d="M 1741.5 300 L 1743 300.5 L 1737.5 303 L 1737.5 302 L 1741.5 300 Z " /><path fill="rgb(0,0,0)" stroke="rgb(0,0,0)" stroke-width="1" opacity="0.7529411764705882" d="M 369.5 302 L 370 304.5 L 369 304.5 L 369.5 302 Z " /><path fill="rgb(0,0,0)" stroke="rgb(0,0,0)" stroke-width="1" opacity="0.7529411764705882" d="M 1734.5 303 L 1736 303.5 L 1730.5 306 L 1730.5 305 L 1734.5 303 Z " /><path fill="rgb(0,0,0)" stroke="rgb(0,0,0)" stroke-width="1" opacity="0.7529411764705882" d="M 1501.5 304 L 1504 304.5 L 1490.5 308 L 1490.5 307 L 1501.5 304 Z " /><path fill="rgb(0,0,0)" stroke="rgb(0,0,0)" stroke-width="1" opacity="0.7529411764705882" d="M 1727.5 306 L 1729 306.5 L 1723.5 309 L 1723.5 308 L 1727.5 306 Z " /><path fill="rgb(0,0,0)" stroke="rgb(0,0,0)" stroke-width="1" opacity="0.7529411764705882" d="M 368.5 307 L 369 310.5 L 368 310.5 L 368.5 307 Z " /><path fill="rgb(0,0,0)" stroke="rgb(0,0,0)" stroke-width="1" opacity="0.7529411764705882" d="M 1486.5 308 L 1489 308.5 L 1475.5 312 L 1475.5 311 L 1486.5 308 Z " /><path fill="rgb(0,0,0)" stroke="rgb(0,0,0)" stroke-width="1" opacity="0.7529411764705882" d="M 1720.5 309 L 1722 309.5 L 1716.5 312 L 1716.5 311 L 1720.5 309 Z " /><path fill="rgb(0,0,0)" stroke="rgb(0,0,0)" stroke-width="1" opacity="0.7529411764705882" d="M 1471.5 312 L 1474 312.5 L 1426.5 325 L 1426.5 324 L 1471.5 312 Z " /><path fill="rgb(0,0,0)" stroke="rgb(0,0,0)" stroke-width="1" opacity="0.7529411764705882" d="M 1713.5 312 L 1715 312.5 L 1709.5 315 L 1709.5 314 L 1713.5 312 Z " /><path fill="rgb(0,0,0)" stroke="rgb(0,0,0)" stroke-width="1" opacity="0.7529411764705882" d="M 367.5 314 L 368 317.5 L 367 317.5 L 367.5 314 Z " /><path fill="rgb(0,0,0)" stroke="rgb(0,0,0)" stroke-width="1" opacity="0.7529411764705882" d="M 1706.5 315 L 1708 315.5 L 1702.5 318 L 1702.5 317 L 1706.5 315 Z " /><path fill="rgb(0,0,0)" stroke="rgb(0,0,0)" stroke-width="1" opacity="0.7529411764705882" d="M 1699.5 318 L 1701 318.5 L 1695.5 321 L 1695.5 320 L 1699.5 318 Z " /><path fill="rgb(0,0,0)" stroke="rgb(0,0,0)" stroke-width="1" opacity="0.7529411764705882" d="M 366.5 320 L 367 325.5 L 366 325.5 L 366.5 320 Z " /><path fill="rgb(0,0,0)" stroke="rgb(0,0,0)" stroke-width="1" opacity="0.7529411764705882" d="M 1692.5 321 L 1694 321.5 L 1688.5 324 L 1688.5 323 L 1692.5 321 Z " /><path fill="rgb(0,0,0)" stroke="rgb(0,0,0)" stroke-width="1" opacity="0.7529411764705882" d="M 1685.5 324 L 1687 324.5 L 1681.5 327 L 1681.5 326 L 1685.5 324 Z " /><path fill="rgb(0,0,0)" stroke="rgb(0,0,0)" stroke-width="1" opacity="0.7529411764705882" d="M 1422.5 325 L 1425 325.5 L 1411.5 329 L 1411.5 328 L 1422.5 325 Z " /><path fill="rgb(0,0,0)" stroke="rgb(0,0,0)" stroke-width="1" opacity="0.7529411764705882" d="M 1678.5 327 L 1680 327.5 L 1674.5 330 L 1674.5 329 L 1678.5 327 Z " /><path fill="rgb(0,0,0)" stroke="rgb(0,0,0)" stroke-width="1" opacity="0.7529411764705882" d="M 365.5 329 L 366 335.5 L 365 335.5 L 365.5 329 Z " /><path fill="rgb(0,0,0)" stroke="rgb(0,0,0)" stroke-width="1" opacity="0.7529411764705882" d="M 1407.5 329 L 1410 329.5 L 1396.5 333 L 1396.5 332 L 1407.5 329 Z " /><path fill="rgb(0,0,0)" stroke="rgb(0,0,0)" stroke-width="1" opacity="0.7529411764705882" d="M 1671.5 330 L 1673 330.5 L 1667.5 333 L 1667.5 332 L 1671.5 330 Z " /><path fill="rgb(0,0,0)" stroke="rgb(0,0,0)" stroke-width="1" opacity="0.7529411764705882" d="M 1392.5 333 L 1395 333.5 L 1381.5 337 L 1381.5 336 L 1392.5 333 Z " /><path fill="rgb(0,0,0)" stroke="rgb(0,0,0)" stroke-width="1" opacity="0.7529411764705882" d="M 1664.5 333 L 1666 333.5 L 1660.5 336 L 1660.5 335 L 1664.5 333 Z " /><path fill="rgb(0,0,0)" stroke="rgb(0,0,0)" stroke-width="1" opacity="0.7529411764705882" d="M 1657.5 336 L 1659 336.5 L 1653.5 339 L 1653.5 338 L 1657.5 336 Z " /><path fill="rgb(0,0,0)" stroke="rgb(0,0,0)" stroke-width="1" opacity="0.7529411764705882" d="M 1377.5 337 L 1380 337.5 L 1377.5 338 L 1377.5 337 Z " /><path fill="rgb(0,0,0)" stroke="rgb(0,0,0)" stroke-width="1" opacity="0.7529411764705882" d="M 1373.5 338 L 1376 338.5 L 1362.5 342 L 1362.5 341 L 1373.5 338 Z " /><path fill="rgb(0,0,0)" stroke="rgb(0,0,0)" stroke-width="1" opacity="0.7529411764705882" d="M 1650.5 339 L 1652 339.5 L 1646.5 342 L 1646.5 341 L 1650.5 339 Z " /><path fill="rgb(0,0,0)" stroke="rgb(0,0,0)" stroke-width="1" opacity="0.7529411764705882" d="M 364.5 342 L 365 370.5 L 364 370.5 L 364.5 342 Z " /><path fill="rgb(0,0,0)" stroke="rgb(0,0,0)" stroke-width="1" opacity="0.7529411764705882" d="M 1358.5 342 L 1361 342.5 L 1347.5 346 L 1347.5 345 L 1358.5 342 Z " /><path fill="rgb(0,0,0)" stroke="rgb(0,0,0)" stroke-width="1" opacity="0.7529411764705882" d="M 1643.5 342 L 1645 342.5 L 1639.5 345 L 1639.5 344 L 1643.5 342 Z " /><path fill="rgb(0,0,0)" stroke="rgb(0,0,0)" stroke-width="1" opacity="0.7529411764705882" d="M 1636.5 345 L 1638 345.5 L 1632.5 348 L 1632.5 347 L 1636.5 345 Z " /><path fill="rgb(0,0,0)" stroke="rgb(0,0,0)" stroke-width="1" opacity="0.7529411764705882" d="M 1343.5 346 L 1346 346.5 L 1332.5 350 L 1332.5 349 L 1343.5 346 Z " /><path fill="rgb(0,0,0)" stroke="rgb(0,0,0)" stroke-width="1" opacity="0.7529411764705882" d="M 1629.5 348 L 1631 348.5 L 1625.5 351 L 1625.5 350 L 1629.5 348 Z " /><path fill="rgb(0,0,0)" stroke="rgb(0,0,0)" stroke-width="1" opacity="0.7529411764705882" d="M 257.5 350 L 256 352.5 L 254.5 355 L 255 353.5 L 257.5 350 Z " /><path fill="rgb(0,0,0)" stroke="rgb(0,0,0)" stroke-width="1" opacity="0.7529411764705882" d="M 1328.5 350 L 1331 350.5 L 1328.5 351 L 1328.5 350 Z " /><path fill="rgb(0,0,0)" stroke="rgb(0,0,0)" stroke-width="1" opacity="0.7529411764705882" d="M 1324.5 351 L 1327 351.5 L 1317.5 354 L 1317.5 353 L 1324.5 351 Z " /><path fill="rgb(0,0,0)" stroke="rgb(0,0,0)" stroke-width="1" opacity="0.7529411764705882" d="M 1622.5 351 L 1624 351.5 L 1618.5 354 L 1618.5 353 L 1622.5 351 Z " /><path fill="rgb(0,0,0)" stroke="rgb(0,0,0)" stroke-width="1" opacity="0.7529411764705882" d="M 1313.5 354 L 1316 354.5 L 1313.5 355 L 1313.5 354 Z " /><path fill="rgb(0,0,0)" stroke="rgb(0,0,0)" stroke-width="1" opacity="0.7529411764705882" d="M 1615.5 354 L 1617 354.5 L 1613.5 356 L 1613.5 355 L 1615.5 354 Z " /><path fill="rgb(0,0,0)" stroke="rgb(0,0,0)" stroke-width="1" opacity="0.7529411764705882" d="M 1309.5 355 L 1312 355.5 L 1302.5 358 L 1302.5 357 L 1309.5 355 Z " /><path fill="rgb(0,0,0)" stroke="rgb(0,0,0)" stroke-width="1" opacity="0.7529411764705882" d="M 253.5 356 L 252 358.5 L 229.5 395 L 230 393.5 Q 240.3 373.3 253.5 356 Z " /><path fill="rgb(0,0,0)" stroke="rgb(0,0,0)" stroke-width="1" opacity="0.7529411764705882" d="M 1608.5 357 L 1610 357.5 L 1606.5 359 L 1606.5 358 L 1608.5 357 Z " /><path fill="rgb(0,0,0)" stroke="rgb(0,0,0)" stroke-width="1" opacity="0.7529411764705882" d="M 1298.5 358 L 1301 358.5 L 1298.5 359 L 1298.5 358 Z " /><path fill="rgb(0,0,0)" stroke="rgb(0,0,0)" stroke-width="1" opacity="0.7529411764705882" d="M 1294.5 359 L 1297 359.5 L 1287.5 362 L 1287.5 361 L 1294.5 359 Z " /><path fill="rgb(0,0,0)" stroke="rgb(0,0,0)" stroke-width="1" opacity="0.7529411764705882" d="M 1601.5 360 L 1603 360.5 L 1599.5 362 L 1599.5 361 L 1601.5 360 Z " /><path fill="rgb(0,0,0)" stroke="rgb(0,0,0)" stroke-width="1" opacity="0.7529411764705882" d="M 1283.5 362 L 1286 362.5 L 1283.5 363 L 1283.5 362 Z " /><path fill="rgb(0,0,0)" stroke="rgb(0,0,0)" stroke-width="1" opacity="0.7529411764705882" d="M 1279.5 363 L 1282 363.5 L 1279.5 364 L 1279.5 363 Z " /><path fill="rgb(0,0,0)" stroke="rgb(0,0,0)" stroke-width="1" opacity="0.7529411764705882" d="M 1275.5 364 L 1278 364.5 L 1268.5 367 L 1268.5 366 L 1275.5 364 Z " /><path fill="rgb(0,0,0)" stroke="rgb(0,0,0)" stroke-width="1" opacity="0.7529411764705882" d="M 1587.5 366 L 1589 366.5 L 1585.5 368 L 1585.5 367 L 1587.5 366 Z " /><path fill="rgb(0,0,0)" stroke="rgb(0,0,0)" stroke-width="1" opacity="0.7529411764705882" d="M 1264.5 367 L 1267 367.5 L 1264.5 368 L 1264.5 367 Z " /><path fill="rgb(0,0,0)" stroke="rgb(0,0,0)" stroke-width="1" opacity="0.7529411764705882" d="M 1260.5 368 L 1263 368.5 L 1253.5 371 L 1253.5 370 L 1260.5 368 Z " /><path fill="rgb(0,0,0)" stroke="rgb(0,0,0)" stroke-width="1" opacity="0.7529411764705882" d="M 1249.5 371 L 1252 371.5 L 1249.5 372 L 1249.5 371 Z " /><path fill="rgb(0,0,0)" stroke="rgb(0,0,0)" stroke-width="1" opacity="0.7529411764705882" d="M 1245.5 372 L 1248 372.5 L 1245.5 373 L 1245.5 372 Z " /><path fill="rgb(0,0,0)" stroke="rgb(0,0,0)" stroke-width="1" opacity="0.7529411764705882" d="M 1573.5 372 L 1575 372.5 L 1571.5 374 L 1571.5 373 L 1573.5 372 Z " /><path fill="rgb(0,0,0)" stroke="rgb(0,0,0)" stroke-width="1" opacity="0.7529411764705882" d="M 1241.5 373 L 1244 373.5 L 1238.5 375 L 1238.5 374 L 1241.5 373 Z " /><path fill="rgb(0,0,0)" stroke="rgb(0,0,0)" stroke-width="1" opacity="0.7529411764705882" d="M 1234.5 375 L 1237 375.5 L 1234.5 376 L 1234.5 375 Z " /><path fill="rgb(0,0,0)" stroke="rgb(0,0,0)" stroke-width="1" opacity="0.7529411764705882" d="M 1230.5 376 L 1233 376.5 L 1230.5 377 L 1230.5 376 Z " /><path fill="rgb(0,0,0)" stroke="rgb(0,0,0)" stroke-width="1" opacity="0.7529411764705882" d="M 365.5 377 L 366 381.5 L 365 381.5 L 365.5 377 Z " /><path fill="rgb(0,0,0)" stroke="rgb(0,0,0)" stroke-width="1" opacity="0.7529411764705882" d="M 1226.5 377 L 1229 377.5 L 1223.5 379 L 1223.5 378 L 1226.5 377 Z " /><path fill="rgb(0,0,0)" stroke="rgb(0,0,0)" stroke-width="1" opacity="0.7529411764705882" d="M 1559.5 378 L 1561 378.5 L 1557.5 380 L 1557.5 379 L 1559.5 378 Z " /><path fill="rgb(0,0,0)" stroke="rgb(0,0,0)" stroke-width="1" opacity="0.7529411764705882" d="M 1219.5 379 L 1222 379.5 L 1219.5 380 L 1219.5 379 Z " /><path fill="rgb(0,0,0)" stroke="rgb(0,0,0)" stroke-width="1" opacity="0.7529411764705882" d="M 1215.5 380 L 1218 380.5 L 1215.5 381 L 1215.5 380 Z " /><path fill="rgb(0,0,0)" stroke="rgb(0,0,0)" stroke-width="1" opacity="0.7529411764705882" d="M 1211.5 381 L 1214 381.5 L 1208.5 383 L 1208.5 382 L 1211.5 381 Z " /><path fill="rgb(0,0,0)" stroke="rgb(0,0,0)" stroke-width="1" opacity="0.7529411764705882" d="M 1204.5 383 L 1207 383.5 L 1204.5 384 L 1204.5 383 Z " /><path fill="rgb(0,0,0)" stroke="rgb(0,0,0)" stroke-width="1" opacity="0.7529411764705882" d="M 1200.5 384 L 1203 384.5 L 1200.5 385 L 1200.5 384 Z " /><path fill="rgb(0,0,0)" stroke="rgb(0,0,0)" stroke-width="1" opacity="0.7529411764705882" d="M 1545.5 384 L 1547 384.5 L 1543.5 386 L 1543.5 385 L 1545.5 384 Z " /><path fill="rgb(0,0,0)" stroke="rgb(0,0,0)" stroke-width="1" opacity="0.7529411764705882" d="M 1196.5 385 L 1199 385.5 L 1196.5 386 L 1196.5 385 Z " /><path fill="rgb(0,0,0)" stroke="rgb(0,0,0)" stroke-width="1" opacity="0.7529411764705882" d="M 366.5 386 L 367 389.5 L 366 389.5 L 366.5 386 Z " /><path fill="rgb(0,0,0)" stroke="rgb(0,0,0)" stroke-width="1" opacity="0.7529411764705882" d="M 1189.5 387 L 1192 387.5 L 1189.5 388 L 1189.5 387 Z " /><path fill="rgb(0,0,0)" stroke="rgb(0,0,0)" stroke-width="1" opacity="0.7529411764705882" d="M 1538.5 387 L 1540 387.5 L 1536.5 389 L 1536.5 388 L 1538.5 387 Z " /><path fill="rgb(0,0,0)" stroke="rgb(0,0,0)" stroke-width="1" opacity="0.7529411764705882" d="M 1185.5 388 L 1188 388.5 L 1185.5 389 L 1185.5 388 Z " /><path fill="rgb(0,0,0)" stroke="rgb(0,0,0)" stroke-width="1" opacity="0.7529411764705882" d="M 1181.5 389 L 1184 389.5 L 1181.5 390 L 1181.5 389 Z " /><path fill="rgb(0,0,0)" stroke="rgb(0,0,0)" stroke-width="1" opacity="0.7529411764705882" d="M 1531.5 390 L 1533 390.5 L 1529.5 392 L 1529.5 391 L 1531.5 390 Z " /><path fill="rgb(0,0,0)" stroke="rgb(0,0,0)" stroke-width="1" opacity="0.7529411764705882" d="M 1174.5 391 L 1177 391.5 L 1174.5 392 L 1174.5 391 Z " /><path fill="rgb(0,0,0)" stroke="rgb(0,0,0)" stroke-width="1" opacity="0.7529411764705882" d="M 367.5 392 L 368 395.5 L 367 395.5 L 367.5 392 Z " /><path fill="rgb(0,0,0)" stroke="rgb(0,0,0)" stroke-width="1" opacity="0.7529411764705882" d="M 1170.5 392 L 1173 392.5 L 1170.5 393 L 1170.5 392 Z " /><path fill="rgb(0,0,0)" stroke="rgb(0,0,0)" stroke-width="1" opacity="0.7529411764705882" d="M 1166.5 393 L 1169 393.5 L 1166.5 394 L 1166.5 393 Z " /><path fill="rgb(0,0,0)" stroke="rgb(0,0,0)" stroke-width="1" opacity="0.7529411764705882" d="M 1524.5 393 L 1526 393.5 L 1522.5 395 L 1522.5 394 L 1524.5 393 Z " /><path fill="rgb(0,0,0)" stroke="rgb(0,0,0)" stroke-width="1" opacity="0.7529411764705882" d="M 1162.5 394 L 1165 394.5 L 1162.5 395 L 1162.5 394 Z " /><path fill="rgb(0,0,0)" stroke="rgb(0,0,0)" stroke-width="1" opacity="0.7529411764705882" d="M 228.5 396 L 228 397.5 L 221.5 409 L 222 407.5 L 228.5 396 Z " /><path fill="rgb(0,0,0)" stroke="rgb(0,0,0)" stroke-width="1" opacity="0.7529411764705882" d="M 1155.5 396 L 1158 396.5 L 1155.5 397 L 1155.5 396 Z " /><path fill="rgb(0,0,0)" stroke="rgb(0,0,0)" stroke-width="1" opacity="0.7529411764705882" d="M 1517.5 396 L 1519 396.5 L 1515.5 398 L 1515.5 397 L 1517.5 396 Z " /><path fill="rgb(0,0,0)" stroke="rgb(0,0,0)" stroke-width="1" opacity="0.7529411764705882" d="M 1151.5 397 L 1154 397.5 L 1151.5 398 L 1151.5 397 Z " /><path fill="rgb(0,0,0)" stroke="rgb(0,0,0)" stroke-width="1" opacity="0.7529411764705882" d="M 368.5 398 L 369 400.5 L 368 400.5 L 368.5 398 Z " /><path fill="rgb(0,0,0)" stroke="rgb(0,0,0)" stroke-width="1" opacity="0.7529411764705882" d="M 1147.5 398 L 1150 398.5 L 1147.5 399 L 1147.5 398 Z " /><path fill="rgb(0,0,0)" stroke="rgb(0,0,0)" stroke-width="1" opacity="0.7529411764705882" d="M 1510.5 399 L 1512 399.5 L 1508.5 401 L 1508.5 400 L 1510.5 399 Z " /><path fill="rgb(0,0,0)" stroke="rgb(0,0,0)" stroke-width="1" opacity="0.7529411764705882" d="M 1140.5 400 L 1143 400.5 L 1140.5 401 L 1140.5 400 Z " /><path fill="rgb(0,0,0)" stroke="rgb(0,0,0)" stroke-width="1" opacity="0.7529411764705882" d="M 1136.5 401 L 1139 401.5 L 1136.5 402 L 1136.5 401 Z " /><path fill="rgb(0,0,0)" stroke="rgb(0,0,0)" stroke-width="1" opacity="0.7529411764705882" d="M 1132.5 402 L 1135 402.5 L 1132.5 403 L 1132.5 402 Z " /><path fill="rgb(0,0,0)" stroke="rgb(0,0,0)" stroke-width="1" opacity="0.7529411764705882" d="M 1503.5 402 L 1505 402.5 L 1501.5 404 L 1501.5 403 L 1503.5 402 Z " /><path fill="rgb(0,0,0)" stroke="rgb(0,0,0)" stroke-width="1" opacity="0.7529411764705882" d="M 1125.5 404 L 1128 404.5 L 1125.5 405 L 1125.5 404 Z " /><path fill="rgb(0,0,0)" stroke="rgb(0,0,0)" stroke-width="1" opacity="0.7529411764705882" d="M 1121.5 405 L 1124 405.5 L 1121.5 406 L 1121.5 405 Z " /><path fill="rgb(0,0,0)" stroke="rgb(0,0,0)" stroke-width="1" opacity="0.7529411764705882" d="M 1496.5 405 L 1498 405.5 L 1494.5 407 L 1494.5 406 L 1496.5 405 Z " /><path fill="rgb(0,0,0)" stroke="rgb(0,0,0)" stroke-width="1" opacity="0.7529411764705882" d="M 1117.5 406 L 1120 406.5 L 1117.5 407 L 1117.5 406 Z " /><path fill="rgb(0,0,0)" stroke="rgb(0,0,0)" stroke-width="1" opacity="0.7529411764705882" d="M 1489.5 408 L 1491 408.5 L 1487.5 410 L 1487.5 409 L 1489.5 408 Z " /><path fill="rgb(0,0,0)" stroke="rgb(0,0,0)" stroke-width="1" opacity="0.7529411764705882" d="M 1106.5 409 L 1109 409.5 L 1106.5 410 L 1106.5 409 Z " /><path fill="rgb(0,0,0)" stroke="rgb(0,0,0)" stroke-width="1" opacity="0.7529411764705882" d="M 220.5 410 L 220 411.5 L 213.5 424 L 214 422.5 L 220.5 410 Z " /><path fill="rgb(0,0,0)" stroke="rgb(0,0,0)" stroke-width="1" opacity="0.7529411764705882" d="M 1102.5 410 L 1105 410.5 L 1102.5 411 L 1102.5 410 Z " /><path fill="rgb(0,0,0)" stroke="rgb(0,0,0)" stroke-width="1" opacity="0.7529411764705882" d="M 1482.5 411 L 1484 411.5 L 1480.5 413 L 1480.5 412 L 1482.5 411 Z " /><path fill="rgb(0,0,0)" stroke="rgb(0,0,0)" stroke-width="1" opacity="0.7529411764705882" d="M 1091.5 413 L 1094 413.5 L 1091.5 414 L 1091.5 413 Z " /><path fill="rgb(0,0,0)" stroke="rgb(0,0,0)" stroke-width="1" opacity="0.7529411764705882" d="M 372.5 414 L 373 416.5 L 372 416.5 L 372.5 414 Z " /><path fill="rgb(0,0,0)" stroke="rgb(0,0,0)" stroke-width="1" opacity="0.7529411764705882" d="M 1087.5 414 L 1090 414.5 L 1087.5 415 L 1087.5 414 Z " /><path fill="rgb(0,0,0)" stroke="rgb(0,0,0)" stroke-width="1" opacity="0.7529411764705882" d="M 1475.5 414 L 1477 414.5 L 1473.5 416 L 1473.5 415 L 1475.5 414 Z " /><path fill="rgb(0,0,0)" stroke="rgb(0,0,0)" stroke-width="1" opacity="0.7529411764705882" d="M 1076.5 417 L 1079 417.5 L 1076.5 418 L 1076.5 417 Z " /><path fill="rgb(0,0,0)" stroke="rgb(0,0,0)" stroke-width="1" opacity="0.7529411764705882" d="M 1468.5 417 L 1470 417.5 L 1466.5 419 L 1466.5 418 L 1468.5 417 Z " /><path fill="rgb(0,0,0)" stroke="rgb(0,0,0)" stroke-width="1" opacity="0.7529411764705882" d="M 1072.5 418 L 1075 418.5 L 1072.5 419 L 1072.5 418 Z " /><path fill="rgb(0,0,0)" stroke="rgb(0,0,0)" stroke-width="1" opacity="0.7529411764705882" d="M 1461.5 420 L 1463 420.5 L 1459.5 422 L 1459.5 421 L 1461.5 420 Z " /><path fill="rgb(0,0,0)" stroke="rgb(0,0,0)" stroke-width="1" opacity="0.7529411764705882" d="M 1057.5 422 L 1060 422.5 L 1057.5 423 L 1057.5 422 Z " /><path fill="rgb(0,0,0)" stroke="rgb(0,0,0)" stroke-width="1" opacity="0.7529411764705882" d="M 1053.5 423 L 1056 423.5 L 1053.5 424 L 1053.5 423 Z " /><path fill="rgb(0,0,0)" stroke="rgb(0,0,0)" stroke-width="1" opacity="0.7529411764705882" d="M 1454.5 423 L 1456 423.5 L 1452.5 425 L 1452.5 424 L 1454.5 423 Z " /><path fill="rgb(0,0,0)" stroke="rgb(0,0,0)" stroke-width="1" opacity="0.7529411764705882" d="M 375.5 424 L 377 427.5 L 376 427.5 L 375.5 424 Z " /><path fill="rgb(0,0,0)" stroke="rgb(0,0,0)" stroke-width="1" opacity="0.7529411764705882" d="M 212.5 425 L 212 426.5 L 205.5 440 L 205 438.5 L 212.5 425 Z " /><path fill="rgb(0,0,0)" stroke="rgb(0,0,0)" stroke-width="1" opacity="0.7529411764705882" d="M 1042.5 426 L 1045 426.5 L 1042.5 427 L 1042.5 426 Z " /><path fill="rgb(0,0,0)" stroke="rgb(0,0,0)" stroke-width="1" opacity="0.7529411764705882" d="M 1447.5 426 L 1449 426.5 L 1445.5 428 L 1445.5 427 L 1447.5 426 Z " /><path fill="rgb(0,0,0)" stroke="rgb(0,0,0)" stroke-width="1" opacity="0.7529411764705882" d="M 1038.5 427 L 1041 427.5 L 1038.5 428 L 1038.5 427 Z " /><path fill="rgb(0,0,0)" stroke="rgb(0,0,0)" stroke-width="1" opacity="0.7529411764705882" d="M 377.5 429 L 379 432.5 L 378 432.5 L 377.5 429 Z " /><path fill="rgb(0,0,0)" stroke="rgb(0,0,0)" stroke-width="1" opacity="0.7529411764705882" d="M 1440.5 429 L 1442 429.5 L 1438.5 431 L 1438.5 430 L 1440.5 429 Z " /><path fill="rgb(0,0,0)" stroke="rgb(0,0,0)" stroke-width="1" opacity="0.7529411764705882" d="M 1027.5 430 L 1030 430.5 L 1027.5 431 L 1027.5 430 Z " /><path fill="rgb(0,0,0)" stroke="rgb(0,0,0)" stroke-width="1" opacity="0.7529411764705882" d="M 1023.5 431 L 1026 431.5 L 1023.5 432 L 1023.5 431 Z " /><path fill="rgb(0,0,0)" stroke="rgb(0,0,0)" stroke-width="1" opacity="0.7529411764705882" d="M 1012.5 434 L 1015 434.5 L 1012.5 435 L 1012.5 434 Z " /><path fill="rgb(0,0,0)" stroke="rgb(0,0,0)" stroke-width="1" opacity="0.7529411764705882" d="M 1008.5 435 L 1011 435.5 L 1008.5 436 L 1008.5 435 Z " /><path fill="rgb(0,0,0)" stroke="rgb(0,0,0)" stroke-width="1" opacity="0.7529411764705882" d="M 381.5 438 L 383 441.5 L 382 441.5 L 381.5 438 Z " /><path fill="rgb(0,0,0)" stroke="rgb(0,0,0)" stroke-width="1" opacity="0.7529411764705882" d="M 993.5 439 L 996 439.5 L 993.5 440 L 993.5 439 Z " /><path fill="rgb(0,0,0)" stroke="rgb(0,0,0)" stroke-width="1" opacity="0.7529411764705882" d="M 203.5 443 L 204 444.5 L 198.5 455 L 198 453.5 L 203.5 443 Z " /><path fill="rgb(0,0,0)" stroke="rgb(0,0,0)" stroke-width="1" opacity="0.7529411764705882" d="M 978.5 443 L 981 443.5 L 978.5 444 L 978.5 443 Z " /><path fill="rgb(0,0,0)" stroke="rgb(0,0,0)" stroke-width="1" opacity="0.7529411764705882" d="M 384.5 445 L 387 448.5 L 385 447.5 L 384.5 445 Z " /><path fill="rgb(0,0,0)" stroke="rgb(0,0,0)" stroke-width="1" opacity="0.7529411764705882" d="M 963.5 447 L 966 447.5 L 963.5 448 L 963.5 447 Z " /><path fill="rgb(0,0,0)" stroke="rgb(0,0,0)" stroke-width="1" opacity="0.7529411764705882" d="M 948.5 451 L 951 451.5 L 948.5 452 L 948.5 451 Z " /><path fill="rgb(0,0,0)" stroke="rgb(0,0,0)" stroke-width="1" opacity="0.7529411764705882" d="M 388.5 452 L 389.5 454 L 388.5 452 Z " /><path fill="rgb(0,0,0)" stroke="rgb(0,0,0)" stroke-width="1" opacity="0.7529411764705882" d="M 944.5 452 L 947 452.5 L 944.5 453 L 944.5 452 Z " /><path fill="rgb(0,0,0)" stroke="rgb(0,0,0)" stroke-width="1" opacity="0.7529411764705882" d="M 197.5 456 L 198 457.5 L 191.5 471 L 191 469.5 L 197.5 456 Z " /><path fill="rgb(0,0,0)" stroke="rgb(0,0,0)" stroke-width="1" opacity="0.7529411764705882" d="M 929.5 456 L 932 456.5 L 929.5 457 L 929.5 456 Z " /><path fill="rgb(0,0,0)" stroke="rgb(0,0,0)" stroke-width="1" opacity="0.7529411764705882" d="M 391.5 457 L 392.5 459 L 391.5 457 Z " /><path fill="rgb(0,0,0)" stroke="rgb(0,0,0)" stroke-width="1" opacity="0.7529411764705882" d="M 393.5 460 L 398 465.5 L 395 463.5 L 393.5 460 Z " /><path fill="rgb(0,0,0)" stroke="rgb(0,0,0)" stroke-width="1" opacity="0.7529411764705882" d="M 914.5 460 L 917 460.5 L 914.5 461 L 914.5 460 Z " /><path fill="rgb(0,0,0)" stroke="rgb(0,0,0)" stroke-width="1" opacity="0.7529411764705882" d="M 899.5 464 L 902 464.5 L 899.5 465 L 899.5 464 Z " /><path fill="rgb(0,0,0)" stroke="rgb(0,0,0)" stroke-width="1" opacity="0.7529411764705882" d="M 398.5 467 L 400.5 470 L 398.5 467 Z " /><path fill="rgb(0,0,0)" stroke="rgb(0,0,0)" stroke-width="1" opacity="0.7529411764705882" d="M 884.5 468 L 887 468.5 L 884.5 469 L 884.5 468 Z " /><path fill="rgb(0,0,0)" stroke="rgb(0,0,0)" stroke-width="1" opacity="0.7529411764705882" d="M 190.5 472 L 191 473.5 L 189.5 476 L 189 474.5 L 190.5 472 Z " /><path fill="rgb(0,0,0)" stroke="rgb(0,0,0)" stroke-width="1" opacity="0.7529411764705882" d="M 402.5 472 L 405.5 476 L 402.5 472 Z " /><path fill="rgb(0,0,0)" stroke="rgb(0,0,0)" stroke-width="1" opacity="0.7529411764705882" d="M 865.5 473 L 868 473.5 L 865.5 474 L 865.5 473 Z " /><path fill="rgb(0,0,0)" stroke="rgb(0,0,0)" stroke-width="1" opacity="0.7529411764705882" d="M 188.5 477 L 189 478.5 L 187.5 481 L 187 479.5 L 188.5 477 Z " /><path fill="rgb(0,0,0)" stroke="rgb(0,0,0)" stroke-width="1" opacity="0.7529411764705882" d="M 850.5 477 L 853 477.5 L 850.5 478 L 850.5 477 Z " /><path fill="rgb(0,0,0)" stroke="rgb(0,0,0)" stroke-width="1" opacity="0.7529411764705882" d="M 407.5 478 L 420.5 492 L 407.5 478 Z " /><path fill="rgb(0,0,0)" stroke="rgb(0,0,0)" stroke-width="1" opacity="0.7529411764705882" d="M 835.5 481 L 838 481.5 L 835.5 482 L 835.5 481 Z " /><path fill="rgb(0,0,0)" stroke="rgb(0,0,0)" stroke-width="1" opacity="0.7529411764705882" d="M 186.5 482 L 187 483.5 L 185.5 486 L 185 484.5 L 186.5 482 Z " /><path fill="rgb(0,0,0)" stroke="rgb(0,0,0)" stroke-width="1" opacity="0.7529411764705882" d="M 1309.5 485 L 1311 485.5 L 1307.5 487 L 1307.5 486 L 1309.5 485 Z " /><path fill="rgb(0,0,0)" stroke="rgb(0,0,0)" stroke-width="1" opacity="0.7529411764705882" d="M 184.5 487 L 185 488.5 L 182.5 494 L 182 492.5 L 184.5 487 Z " /><path fill="rgb(0,0,0)" stroke="rgb(0,0,0)" stroke-width="1" opacity="0.7529411764705882" d="M 1302.5 488 L 1304 488.5 L 1300.5 490 L 1300.5 489 L 1302.5 488 Z " /><path fill="rgb(0,0,0)" stroke="rgb(0,0,0)" stroke-width="1" opacity="0.7529411764705882" d="M 801.5 490 L 804 490.5 L 801.5 491 L 801.5 490 Z " /><path fill="rgb(0,0,0)" stroke="rgb(0,0,0)" stroke-width="1" opacity="0.7529411764705882" d="M 1295.5 491 L 1297 491.5 L 1293.5 493 L 1293.5 492 L 1295.5 491 Z " /><path fill="rgb(0,0,0)" stroke="rgb(0,0,0)" stroke-width="1" opacity="0.7529411764705882" d="M 423.5 493 L 426.5 497 L 423.5 493 Z " /><path fill="rgb(0,0,0)" stroke="rgb(0,0,0)" stroke-width="1" opacity="0.7529411764705882" d="M 786.5 494 L 789 494.5 L 786.5 495 L 786.5 494 Z " /><path fill="rgb(0,0,0)" stroke="rgb(0,0,0)" stroke-width="1" opacity="0.7529411764705882" d="M 1288.5 494 L 1290 494.5 L 1286.5 496 L 1286.5 495 L 1288.5 494 Z " /><path fill="rgb(0,0,0)" stroke="rgb(0,0,0)" stroke-width="1" opacity="0.7529411764705882" d="M 1281.5 497 L 1283 497.5 L 1279.5 499 L 1279.5 498 L 1281.5 497 Z " /><path fill="rgb(0,0,0)" stroke="rgb(0,0,0)" stroke-width="1" opacity="0.7529411764705882" d="M 180.5 498 L 181 499.5 L 174.5 518 L 174 515.5 L 180.5 498 Z " /><path fill="rgb(0,0,0)" stroke="rgb(0,0,0)" stroke-width="1" opacity="0.7529411764705882" d="M 429.5 498 L 431.5 501 L 429.5 498 Z " /><path fill="rgb(0,0,0)" stroke="rgb(0,0,0)" stroke-width="1" opacity="0.7529411764705882" d="M 771.5 498 L 774 498.5 L 771.5 499 L 771.5 498 Z " /><path fill="rgb(0,0,0)" stroke="rgb(0,0,0)" stroke-width="1" opacity="0.7529411764705882" d="M 1274.5 500 L 1276 500.5 L 1272.5 502 L 1272.5 501 L 1274.5 500 Z " /><path fill="rgb(0,0,0)" stroke="rgb(0,0,0)" stroke-width="1" opacity="0.7529411764705882" d="M 433.5 501 L 435.5 504 L 433.5 501 Z " /><path fill="rgb(0,0,0)" stroke="rgb(0,0,0)" stroke-width="1" opacity="0.7529411764705882" d="M 752.5 503 L 755 503.5 L 752.5 504 L 752.5 503 Z " /><path fill="rgb(0,0,0)" stroke="rgb(0,0,0)" stroke-width="1" opacity="0.7529411764705882" d="M 1267.5 503 L 1269 503.5 L 1265.5 505 L 1265.5 504 L 1267.5 503 Z " /><path fill="rgb(0,0,0)" stroke="rgb(0,0,0)" stroke-width="1" opacity="0.7529411764705882" d="M 437.5 504 L 438.5 506 L 437.5 504 Z " /><path fill="rgb(0,0,0)" stroke="rgb(0,0,0)" stroke-width="1" opacity="0.7529411764705882" d="M 440.5 506 L 441.5 508 L 440.5 506 Z " /><path fill="rgb(0,0,0)" stroke="rgb(0,0,0)" stroke-width="1" opacity="0.7529411764705882" d="M 1260.5 506 L 1262 506.5 L 1258.5 508 L 1258.5 507 L 1260.5 506 Z " /><path fill="rgb(0,0,0)" stroke="rgb(0,0,0)" stroke-width="1" opacity="0.7529411764705882" d="M 737.5 507 L 740 507.5 L 737.5 508 L 737.5 507 Z " /><path fill="rgb(0,0,0)" stroke="rgb(0,0,0)" stroke-width="1" opacity="0.7529411764705882" d="M 443.5 508 L 444.5 510 L 443.5 508 Z " /><path fill="rgb(0,0,0)" stroke="rgb(0,0,0)" stroke-width="1" opacity="0.7529411764705882" d="M 1253.5 509 L 1255 509.5 L 1251.5 511 L 1251.5 510 L 1253.5 509 Z " /><path fill="rgb(0,0,0)" stroke="rgb(0,0,0)" stroke-width="1" opacity="0.7529411764705882" d="M 450.5 512 L 454 514.5 L 452.5 514 L 450.5 512 Z " /><path fill="rgb(0,0,0)" stroke="rgb(0,0,0)" stroke-width="1" opacity="0.7529411764705882" d="M 718.5 512 L 721 512.5 L 718.5 513 L 718.5 512 Z " /><path fill="rgb(0,0,0)" stroke="rgb(0,0,0)" stroke-width="1" opacity="0.7529411764705882" d="M 1246.5 512 L 1248 512.5 L 1244.5 514 L 1244.5 513 L 1246.5 512 Z " /><path fill="rgb(0,0,0)" stroke="rgb(0,0,0)" stroke-width="1" opacity="0.7529411764705882" d="M 1239.5 515 L 1241 515.5 L 1237.5 517 L 1237.5 516 L 1239.5 515 Z " /><path fill="rgb(0,0,0)" stroke="rgb(0,0,0)" stroke-width="1" opacity="0.7529411764705882" d="M 457.5 516 L 463 518.5 L 461.5 519 L 457.5 517 L 457.5 516 Z " /><path fill="rgb(0,0,0)" stroke="rgb(0,0,0)" stroke-width="1" opacity="0.7529411764705882" d="M 699.5 517 L 702 517.5 L 699.5 518 L 699.5 517 Z " /><path fill="rgb(0,0,0)" stroke="rgb(0,0,0)" stroke-width="1" opacity="0.7529411764705882" d="M 1232.5 518 L 1234 518.5 L 1230.5 520 L 1230.5 519 L 1232.5 518 Z " /><path fill="rgb(0,0,0)" stroke="rgb(0,0,0)" stroke-width="1" opacity="0.7529411764705882" d="M 684.5 521 L 687 521.5 L 684.5 522 L 684.5 521 Z " /><path fill="rgb(0,0,0)" stroke="rgb(0,0,0)" stroke-width="1" opacity="0.7529411764705882" d="M 1225.5 521 L 1227 521.5 L 1223.5 523 L 1223.5 522 L 1225.5 521 Z " /><path fill="rgb(0,0,0)" stroke="rgb(0,0,0)" stroke-width="1" opacity="0.7529411764705882" d="M 172.5 522 L 173 524.5 L 171.5 528 L 171 525.5 L 172.5 522 Z " /><path fill="rgb(0,0,0)" stroke="rgb(0,0,0)" stroke-width="1" opacity="0.7529411764705882" d="M 680.5 522 L 683 522.5 L 680.5 523 L 680.5 522 Z " /><path fill="rgb(0,0,0)" stroke="rgb(0,0,0)" stroke-width="1" opacity="0.7529411764705882" d="M 675.5 523 L 678 523.5 L 675.5 524 L 675.5 523 Z " /><path fill="rgb(0,0,0)" stroke="rgb(0,0,0)" stroke-width="1" opacity="0.7529411764705882" d="M 1218.5 524 L 1220 524.5 L 1216.5 526 L 1216.5 525 L 1218.5 524 Z " /><path fill="rgb(0,0,0)" stroke="rgb(0,0,0)" stroke-width="1" opacity="0.7529411764705882" d="M 666.5 525 L 669 525.5 L 666.5 526 L 666.5 525 Z " /><path fill="rgb(0,0,0)" stroke="rgb(0,0,0)" stroke-width="1" opacity="0.7529411764705882" d="M 661.5 526 L 664 526.5 L 661.5 527 L 661.5 526 Z " /><path fill="rgb(0,0,0)" stroke="rgb(0,0,0)" stroke-width="1" opacity="0.7529411764705882" d="M 656.5 527 L 659 527.5 L 656.5 528 L 656.5 527 Z " /><path fill="rgb(0,0,0)" stroke="rgb(0,0,0)" stroke-width="1" opacity="0.7529411764705882" d="M 1211.5 527 L 1213 527.5 L 1209.5 529 L 1209.5 528 L 1211.5 527 Z " /><path fill="rgb(0,0,0)" stroke="rgb(0,0,0)" stroke-width="1" opacity="0.7529411764705882" d="M 650.5 528 L 654 528.5 L 650.5 529 L 650.5 528 Z " /><path fill="rgb(0,0,0)" stroke="rgb(0,0,0)" stroke-width="1" opacity="0.7529411764705882" d="M 170.5 529 L 171 531.5 L 170 531.5 L 170.5 529 Z " /><path fill="rgb(0,0,0)" stroke="rgb(0,0,0)" stroke-width="1" opacity="0.7529411764705882" d="M 645.5 529 L 648 529.5 L 645.5 530 L 645.5 529 Z " /><path fill="rgb(0,0,0)" stroke="rgb(0,0,0)" stroke-width="1" opacity="0.7529411764705882" d="M 639.5 530 L 642 530.5 L 639.5 531 L 639.5 530 Z " /><path fill="rgb(0,0,0)" stroke="rgb(0,0,0)" stroke-width="1" opacity="0.7529411764705882" d="M 1204.5 530 L 1206 530.5 L 1202.5 532 L 1202.5 531 L 1204.5 530 Z " /><path fill="rgb(0,0,0)" stroke="rgb(0,0,0)" stroke-width="1" opacity="0.7529411764705882" d="M 502.5 531 L 505 531.5 L 502.5 532 L 502.5 531 Z " /><path fill="rgb(0,0,0)" stroke="rgb(0,0,0)" stroke-width="1" opacity="0.7529411764705882" d="M 632.5 531 L 636 531.5 L 632.5 532 L 632.5 531 Z " /><path fill="rgb(0,0,0)" stroke="rgb(0,0,0)" stroke-width="1" opacity="0.7529411764705882" d="M 507.5 532 L 510 532.5 L 507.5 533 L 507.5 532 Z " /><path fill="rgb(0,0,0)" stroke="rgb(0,0,0)" stroke-width="1" opacity="0.7529411764705882" d="M 625.5 532 L 629 532.5 L 625.5 533 L 625.5 532 Z " /><path fill="rgb(0,0,0)" stroke="rgb(0,0,0)" stroke-width="1" opacity="0.7529411764705882" d="M 169.5 533 L 170 535.5 L 168.5 539 L 168 536.5 L 169.5 533 Z " /><path fill="rgb(0,0,0)" stroke="rgb(0,0,0)" stroke-width="1" opacity="0.7529411764705882" d="M 513.5 533 L 516 533.5 L 513.5 534 L 513.5 533 Z " /><path fill="rgb(0,0,0)" stroke="rgb(0,0,0)" stroke-width="1" opacity="0.7529411764705882" d="M 617.5 533 L 622 533.5 L 617.5 534 L 617.5 533 Z " /><path fill="rgb(0,0,0)" stroke="rgb(0,0,0)" stroke-width="1" opacity="0.7529411764705882" d="M 1197.5 533 L 1199 533.5 L 1195.5 535 L 1195.5 534 L 1197.5 533 Z " /><path fill="rgb(0,0,0)" stroke="rgb(0,0,0)" stroke-width="1" opacity="0.7529411764705882" d="M 519.5 534 L 524 534.5 L 519.5 535 L 519.5 534 Z " /><path fill="rgb(0,0,0)" stroke="rgb(0,0,0)" stroke-width="1" opacity="0.7529411764705882" d="M 608.5 534 L 614 534.5 L 608.5 535 L 608.5 534 Z " /><path fill="rgb(0,0,0)" stroke="rgb(0,0,0)" stroke-width="1" opacity="0.7529411764705882" d="M 527.5 535 L 533 535.5 L 527.5 536 L 527.5 535 Z " /><path fill="rgb(0,0,0)" stroke="rgb(0,0,0)" stroke-width="1" opacity="0.7529411764705882" d="M 597.5 535 L 604 535.5 L 597.5 536 L 597.5 535 Z " /><path fill="rgb(0,0,0)" stroke="rgb(0,0,0)" stroke-width="1" opacity="0.7529411764705882" d="M 538.5 536 L 549 536.5 L 538.5 537 L 538.5 536 Z " /><path fill="rgb(0,0,0)" stroke="rgb(0,0,0)" stroke-width="1" opacity="0.7529411764705882" d="M 580.5 536 L 591 536.5 L 580.5 537 L 580.5 536 Z " /><path fill="rgb(0,0,0)" stroke="rgb(0,0,0)" stroke-width="1" opacity="0.7529411764705882" d="M 1190.5 536 L 1192 536.5 L 1188.5 538 L 1188.5 537 L 1190.5 536 Z " /><path fill="rgb(0,0,0)" stroke="rgb(0,0,0)" stroke-width="1" opacity="0.7529411764705882" d="M 1183.5 539 L 1185 539.5 L 1181.5 541 L 1181.5 540 L 1183.5 539 Z " /><path fill="rgb(0,0,0)" stroke="rgb(0,0,0)" stroke-width="1" opacity="0.7529411764705882" d="M 167.5 540 L 168 542.5 L 167 542.5 L 167.5 540 Z " /><path fill="rgb(0,0,0)" stroke="rgb(0,0,0)" stroke-width="1" opacity="0.7529411764705882" d="M 1176.5 542 L 1178 542.5 L 1174.5 544 L 1174.5 543 L 1176.5 542 Z " /><path fill="rgb(0,0,0)" stroke="rgb(0,0,0)" stroke-width="1" opacity="0.7529411764705882" d="M 166.5 544 L 167 547.5 L 165.5 552 L 165 548.5 L 166.5 544 Z " /><path fill="rgb(0,0,0)" stroke="rgb(0,0,0)" stroke-width="1" opacity="0.7529411764705882" d="M 1169.5 545 L 1171 545.5 L 1167.5 547 L 1167.5 546 L 1169.5 545 Z " /><path fill="rgb(0,0,0)" stroke="rgb(0,0,0)" stroke-width="1" opacity="0.7529411764705882" d="M 1162.5 548 L 1164 548.5 L 1160.5 550 L 1160.5 549 L 1162.5 548 Z " /><path fill="rgb(0,0,0)" stroke="rgb(0,0,0)" stroke-width="1" opacity="0.7529411764705882" d="M 1155.5 551 L 1157 551.5 L 1153.5 553 L 1153.5 552 L 1155.5 551 Z " /><path fill="rgb(0,0,0)" stroke="rgb(0,0,0)" stroke-width="1" opacity="0.7529411764705882" d="M 164.5 553 L 165 556.5 L 163.5 562 L 163 557.5 L 164.5 553 Z " /><path fill="rgb(0,0,0)" stroke="rgb(0,0,0)" stroke-width="1" opacity="0.7529411764705882" d="M 1148.5 554 L 1150 554.5 L 1146.5 556 L 1146.5 555 L 1148.5 554 Z " /><path fill="rgb(0,0,0)" stroke="rgb(0,0,0)" stroke-width="1" opacity="0.7529411764705882" d="M 1141.5 557 L 1143 557.5 L 1139.5 559 L 1139.5 558 L 1141.5 557 Z " /><path fill="rgb(0,0,0)" stroke="rgb(0,0,0)" stroke-width="1" opacity="0.7529411764705882" d="M 1134.5 560 L 1136 560.5 L 1132.5 562 L 1132.5 561 L 1134.5 560 Z " /><path fill="rgb(0,0,0)" stroke="rgb(0,0,0)" stroke-width="1" opacity="0.7529411764705882" d="M 1129.5 562 L 1131 562.5 L 1125.5 565 L 1125.5 564 L 1129.5 562 Z " /><path fill="rgb(0,0,0)" stroke="rgb(0,0,0)" stroke-width="1" opacity="0.7529411764705882" d="M 162.5 563 L 163 566.5 L 162 566.5 L 162.5 563 Z " /><path fill="rgb(0,0,0)" stroke="rgb(0,0,0)" stroke-width="1" opacity="0.7529411764705882" d="M 1122.5 565 L 1124 565.5 L 1118.5 568 L 1118.5 567 L 1122.5 565 Z " /><path fill="rgb(0,0,0)" stroke="rgb(0,0,0)" stroke-width="1" opacity="0.7529411764705882" d="M 161.5 568 L 162 572.5 L 161 572.5 L 161.5 568 Z " /><path fill="rgb(0,0,0)" stroke="rgb(0,0,0)" stroke-width="1" opacity="0.7529411764705882" d="M 1115.5 568 L 1117 568.5 L 1111.5 571 L 1111.5 570 L 1115.5 568 Z " /><path fill="rgb(0,0,0)" stroke="rgb(0,0,0)" stroke-width="1" opacity="0.7529411764705882" d="M 1108.5 571 L 1110 571.5 L 1104.5 574 L 1104.5 573 L 1108.5 571 Z " /><path fill="rgb(0,0,0)" stroke="rgb(0,0,0)" stroke-width="1" opacity="0.7529411764705882" d="M 160.5 574 L 161 578.5 L 160 578.5 L 160.5 574 Z " /><path fill="rgb(0,0,0)" stroke="rgb(0,0,0)" stroke-width="1" opacity="0.7529411764705882" d="M 1101.5 574 L 1103 574.5 L 1097.5 577 L 1097.5 576 L 1101.5 574 Z " /><path fill="rgb(0,0,0)" stroke="rgb(0,0,0)" stroke-width="1" opacity="0.7529411764705882" d="M 1094.5 577 L 1096 577.5 L 1092.5 579 L 1092.5 578 L 1094.5 577 Z " /><path fill="rgb(0,0,0)" stroke="rgb(0,0,0)" stroke-width="1" opacity="0.7529411764705882" d="M 1087.5 580 L 1089 580.5 L 1085.5 582 L 1085.5 581 L 1087.5 580 Z " /><path fill="rgb(0,0,0)" stroke="rgb(0,0,0)" stroke-width="1" opacity="0.7529411764705882" d="M 159.5 581 L 160 586.5 L 159 586.5 L 159.5 581 Z " /><path fill="rgb(0,0,0)" stroke="rgb(0,0,0)" stroke-width="1" opacity="0.7529411764705882" d="M 1080.5 583 L 1082 583.5 L 1078.5 585 L 1078.5 584 L 1080.5 583 Z " /><path fill="rgb(0,0,0)" stroke="rgb(0,0,0)" stroke-width="1" opacity="0.7529411764705882" d="M 1073.5 586 L 1075 586.5 L 1071.5 588 L 1071.5 587 L 1073.5 586 Z " /><path fill="rgb(0,0,0)" stroke="rgb(0,0,0)" stroke-width="1" opacity="0.7529411764705882" d="M 158.5 589 L 159 596.5 L 158 596.5 L 158.5 589 Z " /><path fill="rgb(0,0,0)" stroke="rgb(0,0,0)" stroke-width="1" opacity="0.7529411764705882" d="M 1066.5 589 L 1068 589.5 L 1064.5 591 L 1064.5 590 L 1066.5 589 Z " /><path fill="rgb(0,0,0)" stroke="rgb(0,0,0)" stroke-width="1" opacity="0.7529411764705882" d="M 1059.5 592 L 1061 592.5 L 1057.5 594 L 1057.5 593 L 1059.5 592 Z " /><path fill="rgb(0,0,0)" stroke="rgb(0,0,0)" stroke-width="1" opacity="0.7529411764705882" d="M 1052.5 595 L 1054 595.5 L 1050.5 597 L 1050.5 596 L 1052.5 595 Z " /><path fill="rgb(0,0,0)" stroke="rgb(0,0,0)" stroke-width="1" opacity="0.7529411764705882" d="M 1045.5 598 L 1047 598.5 L 1043.5 600 L 1043.5 599 L 1045.5 598 Z " /><path fill="rgb(0,0,0)" stroke="rgb(0,0,0)" stroke-width="1" opacity="0.7529411764705882" d="M 157.5 599 L 158 611.5 L 157 611.5 L 157.5 599 Z " /><path fill="rgb(0,0,0)" stroke="rgb(0,0,0)" stroke-width="1" opacity="0.7529411764705882" d="M 1040.5 600 L 1042 600.5 L 1036.5 603 L 1036.5 602 L 1040.5 600 Z " /><path fill="rgb(0,0,0)" stroke="rgb(0,0,0)" stroke-width="1" opacity="0.7529411764705882" d="M 1033.5 603 L 1035 603.5 L 1029.5 606 L 1029.5 605 L 1033.5 603 Z " /><path fill="rgb(0,0,0)" stroke="rgb(0,0,0)" stroke-width="1" opacity="0.7529411764705882" d="M 1026.5 606 L 1028 606.5 L 1022.5 609 L 1022.5 608 L 1026.5 606 Z " /><path fill="rgb(0,0,0)" stroke="rgb(0,0,0)" stroke-width="1" opacity="0.7529411764705882" d="M 1019.5 609 L 1021 609.5 L 1015.5 612 L 1015.5 611 L 1019.5 609 Z " /><path fill="rgb(0,0,0)" stroke="rgb(0,0,0)" stroke-width="1" opacity="0.7529411764705882" d="M 1012.5 612 L 1014 612.5 L 1008.5 615 L 1008.5 614 L 1012.5 612 Z " /><path fill="rgb(0,0,0)" stroke="rgb(0,0,0)" stroke-width="1" opacity="0.7529411764705882" d="M 1005.5 615 L 1007 615.5 L 1001.5 618 L 1001.5 617 L 1005.5 615 Z " /><path fill="rgb(0,0,0)" stroke="rgb(0,0,0)" stroke-width="1" opacity="0.7529411764705882" d="M 998.5 618 L 1000 618.5 L 994.5 621 L 994.5 620 L 998.5 618 Z " /><path fill="rgb(0,0,0)" stroke="rgb(0,0,0)" stroke-width="1" opacity="0.7529411764705882" d="M 991.5 621 L 993 621.5 L 987.5 624 L 987.5 623 L 991.5 621 Z " /><path fill="rgb(0,0,0)" stroke="rgb(0,0,0)" stroke-width="1" opacity="0.7529411764705882" d="M 984.5 624 L 986 624.5 L 980.5 627 L 980.5 626 L 984.5 624 Z " /><path fill="rgb(0,0,0)" stroke="rgb(0,0,0)" stroke-width="1" opacity="0.7529411764705882" d="M 977.5 627 L 979 627.5 L 966.5 633 L 966.5 632 L 977.5 627 Z " /><path fill="rgb(0,0,0)" stroke="rgb(0,0,0)" stroke-width="1" opacity="0.7529411764705882" d="M 157.5 632 L 158 643.5 L 157 643.5 L 157.5 632 Z " /><path fill="rgb(0,0,0)" stroke="rgb(0,0,0)" stroke-width="1" opacity="0.7529411764705882" d="M 963.5 633 L 965 633.5 L 959.5 636 L 959.5 635 L 963.5 633 Z " /><path fill="rgb(0,0,0)" stroke="rgb(0,0,0)" stroke-width="1" opacity="0.7529411764705882" d="M 956.5 636 L 958 636.5 L 945.5 642 L 945.5 641 L 956.5 636 Z " /><path fill="rgb(0,0,0)" stroke="rgb(0,0,0)" stroke-width="1" opacity="0.7529411764705882" d="M 942.5 642 L 944 642.5 L 931.5 648 L 931.5 647 L 942.5 642 Z " /><path fill="rgb(0,0,0)" stroke="rgb(0,0,0)" stroke-width="1" opacity="0.7529411764705882" d="M 158.5 647 L 159 653.5 L 158 653.5 L 158.5 647 Z " /><path fill="rgb(0,0,0)" stroke="rgb(0,0,0)" stroke-width="1" opacity="0.7529411764705882" d="M 928.5 648 L 930 648.5 L 917.5 654 L 917.5 653 L 928.5 648 Z " /><path fill="rgb(0,0,0)" stroke="rgb(0,0,0)" stroke-width="1" opacity="0.7529411764705882" d="M 914.5 654 L 916 654.5 L 793.5 707 L 793.5 706 L 914.5 654 Z " /><path fill="rgb(0,0,0)" stroke="rgb(0,0,0)" stroke-width="1" opacity="0.7529411764705882" d="M 159.5 655 L 160 660.5 L 159 660.5 L 159.5 655 Z " /><path fill="rgb(0,0,0)" stroke="rgb(0,0,0)" stroke-width="1" opacity="0.7529411764705882" d="M 160.5 662 L 161 665.5 L 160 665.5 L 160.5 662 Z " /><path fill="rgb(0,0,0)" stroke="rgb(0,0,0)" stroke-width="1" opacity="0.7529411764705882" d="M 161.5 667 L 162 670.5 L 161 670.5 L 161.5 667 Z " /><path fill="rgb(0,0,0)" stroke="rgb(0,0,0)" stroke-width="1" opacity="0.7529411764705882" d="M 162.5 672 L 165 682.5 L 164 682.5 L 162.5 672 Z " /><path fill="rgb(0,0,0)" stroke="rgb(0,0,0)" stroke-width="1" opacity="0.7529411764705882" d="M 165.5 684 L 167 689.5 L 166 689.5 L 165.5 684 Z " /><path fill="rgb(0,0,0)" stroke="rgb(0,0,0)" stroke-width="1" opacity="0.7529411764705882" d="M 167.5 691 L 170 697.5 L 169 697.5 L 167.5 691 Z " /><path fill="rgb(0,0,0)" stroke="rgb(0,0,0)" stroke-width="1" opacity="0.7529411764705882" d="M 170.5 699 L 172 702.5 L 171 702.5 L 170.5 699 Z " /><path fill="rgb(0,0,0)" stroke="rgb(0,0,0)" stroke-width="1" opacity="0.7529411764705882" d="M 172.5 704 L 175 709.5 L 174 709.5 L 172.5 704 Z " /><path fill="rgb(0,0,0)" stroke="rgb(0,0,0)" stroke-width="1" opacity="0.7529411764705882" d="M 790.5 707 L 792 707.5 L 786.5 710 L 786.5 709 L 790.5 707 Z " /><path fill="rgb(0,0,0)" stroke="rgb(0,0,0)" stroke-width="1" opacity="0.7529411764705882" d="M 783.5 710 L 785 710.5 L 779.5 713 L 779.5 712 L 783.5 710 Z " /><path fill="rgb(0,0,0)" stroke="rgb(0,0,0)" stroke-width="1" opacity="0.7529411764705882" d="M 776.5 713 L 778 713.5 L 772.5 716 L 772.5 715 L 776.5 713 Z " /><path fill="rgb(0,0,0)" stroke="rgb(0,0,0)" stroke-width="1" opacity="0.7529411764705882" d="M 769.5 716 L 771 716.5 L 765.5 719 L 765.5 718 L 769.5 716 Z " /><path fill="rgb(0,0,0)" stroke="rgb(0,0,0)" stroke-width="1" opacity="0.7529411764705882" d="M 179.5 719 L 183 724.5 L 181 723.5 L 179.5 719 Z " /><path fill="rgb(0,0,0)" stroke="rgb(0,0,0)" stroke-width="1" opacity="0.7529411764705882" d="M 762.5 719 L 764 719.5 L 758.5 722 L 758.5 721 L 762.5 719 Z " /><path fill="rgb(0,0,0)" stroke="rgb(0,0,0)" stroke-width="1" opacity="0.7529411764705882" d="M 755.5 722 L 757 722.5 L 711.5 742 L 711.5 741 L 755.5 722 Z " /><path fill="rgb(0,0,0)" stroke="rgb(0,0,0)" stroke-width="1" opacity="0.7529411764705882" d="M 183.5 726 L 188 732.5 L 186 731.5 L 183.5 726 Z " /><path fill="rgb(0,0,0)" stroke="rgb(0,0,0)" stroke-width="1" opacity="0.7529411764705882" d="M 188.5 734 Q 203.5 756.5 223.5 774 L 238 785.5 L 235.5 784 Q 216.8 771.7 203 754.5 L 188.5 734 Z " /><path fill="rgb(0,0,0)" stroke="rgb(0,0,0)" stroke-width="1" opacity="0.7529411764705882" d="M 708.5 742 L 710 742.5 L 704.5 745 L 704.5 744 L 708.5 742 Z " /><path fill="rgb(0,0,0)" stroke="rgb(0,0,0)" stroke-width="1" opacity="0.7529411764705882" d="M 701.5 745 L 703 745.5 L 697.5 748 L 697.5 747 L 701.5 745 Z " /><path fill="rgb(0,0,0)" stroke="rgb(0,0,0)" stroke-width="1" opacity="0.7529411764705882" d="M 694.5 748 L 696 748.5 L 685.5 753 L 685.5 752 L 694.5 748 Z " /><path fill="rgb(0,0,0)" stroke="rgb(0,0,0)" stroke-width="1" opacity="0.7529411764705882" d="M 682.5 753 L 684 753.5 L 673.5 758 L 673.5 757 L 682.5 753 Z " /><path fill="rgb(0,0,0)" stroke="rgb(0,0,0)" stroke-width="1" opacity="0.7529411764705882" d="M 670.5 758 L 672 758.5 L 668.5 760 L 668.5 759 L 670.5 758 Z " /><path fill="rgb(0,0,0)" stroke="rgb(0,0,0)" stroke-width="1" opacity="0.7529411764705882" d="M 665.5 760 L 667 760.5 L 656.5 765 L 656.5 764 L 665.5 760 Z " /><path fill="rgb(0,0,0)" stroke="rgb(0,0,0)" stroke-width="1" opacity="0.7529411764705882" d="M 653.5 765 L 655 765.5 L 651.5 767 L 651.5 766 L 653.5 765 Z " /><path fill="rgb(0,0,0)" stroke="rgb(0,0,0)" stroke-width="1" opacity="0.7529411764705882" d="M 648.5 767 L 650 767.5 L 646.5 769 L 646.5 768 L 648.5 767 Z " /><path fill="rgb(0,0,0)" stroke="rgb(0,0,0)" stroke-width="1" opacity="0.7529411764705882" d="M 643.5 769 L 645 769.5 L 638.5 772 L 638.5 771 L 643.5 769 Z " /><path fill="rgb(0,0,0)" stroke="rgb(0,0,0)" stroke-width="1" opacity="0.7529411764705882" d="M 635.5 772 L 637 772.5 L 633.5 774 L 633.5 773 L 635.5 772 Z " /><path fill="rgb(0,0,0)" stroke="rgb(0,0,0)" stroke-width="1" opacity="0.7529411764705882" d="M 627.5 775 L 629 775.5 L 622.5 778 L 622.5 777 L 627.5 775 Z " /><path fill="rgb(0,0,0)" stroke="rgb(0,0,0)" stroke-width="1" opacity="0.7529411764705882" d="M 616.5 779 L 618 779.5 L 608.5 783 L 608.5 782 L 616.5 779 Z " /><path fill="rgb(0,0,0)" stroke="rgb(0,0,0)" stroke-width="1" opacity="0.7529411764705882" d="M 599.5 785 L 601 785.5 L 584.5 791 L 584.5 790 L 599.5 785 Z " /><path fill="rgb(0,0,0)" stroke="rgb(0,0,0)" stroke-width="1" opacity="0.7529411764705882" d="M 239.5 786 L 247 791.5 L 245.5 791 Q 240.5 789.5 239.5 786 Z " /><path fill="rgb(0,0,0)" stroke="rgb(0,0,0)" stroke-width="1" opacity="0.7529411764705882" d="M 248.5 792 L 252 794.5 L 250.5 794 L 248.5 792 Z " /><path fill="rgb(0,0,0)" stroke="rgb(0,0,0)" stroke-width="1" opacity="0.7529411764705882" d="M 253.5 795 L 259 798.5 L 257.5 798 Q 253.5 797.5 253.5 795 Z " /><path fill="rgb(0,0,0)" stroke="rgb(0,0,0)" stroke-width="1" opacity="0.7529411764705882" d="M 568.5 795 L 571 795.5 L 565.5 797 L 565.5 796 L 568.5 795 Z " /><path fill="rgb(0,0,0)" stroke="rgb(0,0,0)" stroke-width="1" opacity="0.7529411764705882" d="M 558.5 798 L 561 798.5 L 555.5 800 L 555.5 799 L 558.5 798 Z " /><path fill="rgb(0,0,0)" stroke="rgb(0,0,0)" stroke-width="1" opacity="0.7529411764705882" d="M 551.5 800 L 554 800.5 L 548.5 802 L 548.5 801 L 551.5 800 Z " /><path fill="rgb(0,0,0)" stroke="rgb(0,0,0)" stroke-width="1" opacity="0.7529411764705882" d="M 544.5 802 L 547 802.5 L 541.5 804 L 541.5 803 L 544.5 802 Z " /><path fill="rgb(0,0,0)" stroke="rgb(0,0,0)" stroke-width="1" opacity="0.7529411764705882" d="M 270.5 804 L 276 806.5 L 274.5 807 L 270.5 805 L 270.5 804 Z " /><path fill="rgb(0,0,0)" stroke="rgb(0,0,0)" stroke-width="1" opacity="0.7529411764705882" d="M 537.5 804 L 540 804.5 L 537.5 805 L 537.5 804 Z " /><path fill="rgb(0,0,0)" stroke="rgb(0,0,0)" stroke-width="1" opacity="0.7529411764705882" d="M 533.5 805 L 536 805.5 L 533.5 806 L 533.5 805 Z " /><path fill="rgb(0,0,0)" stroke="rgb(0,0,0)" stroke-width="1" opacity="0.7529411764705882" d="M 529.5 806 L 532 806.5 L 526.5 808 L 526.5 807 L 529.5 806 Z " /><path fill="rgb(0,0,0)" stroke="rgb(0,0,0)" stroke-width="1" opacity="0.7529411764705882" d="M 279.5 808 L 283 809.5 L 281.5 810 L 279.5 808 Z " /><path fill="rgb(0,0,0)" stroke="rgb(0,0,0)" stroke-width="1" opacity="0.7529411764705882" d="M 521.5 808 L 525 808.5 L 521.5 809 L 521.5 808 Z " /><path fill="rgb(0,0,0)" stroke="rgb(0,0,0)" stroke-width="1" opacity="0.7529411764705882" d="M 517.5 809 L 520 809.5 L 517.5 810 L 517.5 809 Z " /><path fill="rgb(0,0,0)" stroke="rgb(0,0,0)" stroke-width="1" opacity="0.7529411764705882" d="M 513.5 810 L 516 810.5 L 513.5 811 L 513.5 810 Z " /><path fill="rgb(0,0,0)" stroke="rgb(0,0,0)" stroke-width="1" opacity="0.7529411764705882" d="M 509.5 811 L 512 811.5 L 509.5 812 L 509.5 811 Z " /><path fill="rgb(0,0,0)" stroke="rgb(0,0,0)" stroke-width="1" opacity="0.7529411764705882" d="M 290.5 812 L 295 813.5 L 292.5 814 L 290.5 812 Z " /><path fill="rgb(0,0,0)" stroke="rgb(0,0,0)" stroke-width="1" opacity="0.7529411764705882" d="M 504.5 812 L 508 812.5 L 504.5 813 L 504.5 812 Z " /><path fill="rgb(0,0,0)" stroke="rgb(0,0,0)" stroke-width="1" opacity="0.7529411764705882" d="M 500.5 813 L 503 813.5 L 500.5 814 L 500.5 813 Z " /><path fill="rgb(0,0,0)" stroke="rgb(0,0,0)" stroke-width="1" opacity="0.7529411764705882" d="M 495.5 814 L 499 814.5 L 495.5 815 L 495.5 814 Z " /><path fill="rgb(0,0,0)" stroke="rgb(0,0,0)" stroke-width="1" opacity="0.7529411764705882" d="M 490.5 815 L 494 815.5 L 490.5 816 L 490.5 815 Z " /><path fill="rgb(0,0,0)" stroke="rgb(0,0,0)" stroke-width="1" opacity="0.7529411764705882" d="M 302.5 816 L 305 816.5 L 302.5 817 L 302.5 816 Z " /><path fill="rgb(0,0,0)" stroke="rgb(0,0,0)" stroke-width="1" opacity="0.7529411764705882" d="M 485.5 816 L 489 816.5 L 485.5 817 L 485.5 816 Z " /><path fill="rgb(0,0,0)" stroke="rgb(0,0,0)" stroke-width="1" opacity="0.7529411764705882" d="M 480.5 817 L 484 817.5 L 480.5 818 L 480.5 817 Z " /><path fill="rgb(0,0,0)" stroke="rgb(0,0,0)" stroke-width="1" opacity="0.7529411764705882" d="M 309.5 818 L 312 818.5 L 309.5 819 L 309.5 818 Z " /><path fill="rgb(0,0,0)" stroke="rgb(0,0,0)" stroke-width="1" opacity="0.7529411764705882" d="M 475.5 818 L 479 818.5 L 475.5 819 L 475.5 818 Z " /><path fill="rgb(0,0,0)" stroke="rgb(0,0,0)" stroke-width="1" opacity="0.7529411764705882" d="M 313.5 819 L 317 819.5 L 313.5 820 L 313.5 819 Z " /><path fill="rgb(0,0,0)" stroke="rgb(0,0,0)" stroke-width="1" opacity="0.7529411764705882" d="M 469.5 819 L 473 819.5 L 469.5 820 L 469.5 819 Z " /><path fill="rgb(0,0,0)" stroke="rgb(0,0,0)" stroke-width="1" opacity="0.7529411764705882" d="M 318.5 820 L 321 820.5 L 318.5 821 L 318.5 820 Z " /><path fill="rgb(0,0,0)" stroke="rgb(0,0,0)" stroke-width="1" opacity="0.7529411764705882" d="M 463.5 820 L 467 820.5 L 463.5 821 L 463.5 820 Z " /><path fill="rgb(0,0,0)" stroke="rgb(0,0,0)" stroke-width="1" opacity="0.7529411764705882" d="M 322.5 821 L 326 821.5 L 322.5 822 L 322.5 821 Z " /><path fill="rgb(0,0,0)" stroke="rgb(0,0,0)" stroke-width="1" opacity="0.7529411764705882" d="M 456.5 821 L 461 821.5 L 456.5 822 L 456.5 821 Z " /><path fill="rgb(0,0,0)" stroke="rgb(0,0,0)" stroke-width="1" opacity="0.7529411764705882" d="M 328.5 822 L 332 822.5 L 328.5 823 L 328.5 822 Z " /><path fill="rgb(0,0,0)" stroke="rgb(0,0,0)" stroke-width="1" opacity="0.7529411764705882" d="M 449.5 822 L 454 822.5 L 449.5 823 L 449.5 822 Z " /><path fill="rgb(0,0,0)" stroke="rgb(0,0,0)" stroke-width="1" opacity="0.7529411764705882" d="M 333.5 823 L 338 823.5 L 333.5 824 L 333.5 823 Z " /><path fill="rgb(0,0,0)" stroke="rgb(0,0,0)" stroke-width="1" opacity="0.7529411764705882" d="M 441.5 823 L 447 823.5 L 441.5 824 L 441.5 823 Z " /><path fill="rgb(0,0,0)" stroke="rgb(0,0,0)" stroke-width="1" opacity="0.7529411764705882" d="M 340.5 824 L 346 824.5 L 340.5 825 L 340.5 824 Z " /><path fill="rgb(0,0,0)" stroke="rgb(0,0,0)" stroke-width="1" opacity="0.7529411764705882" d="M 432.5 824 L 439 824.5 L 432.5 825 L 432.5 824 Z " /><path fill="rgb(0,0,0)" stroke="rgb(0,0,0)" stroke-width="1" opacity="0.7529411764705882" d="M 348.5 825 L 355 825.5 L 348.5 826 L 348.5 825 Z " /><path fill="rgb(0,0,0)" stroke="rgb(0,0,0)" stroke-width="1" opacity="0.7529411764705882" d="M 421.5 825 L 429 825.5 L 421.5 826 L 421.5 825 Z " /><path fill="rgb(0,0,0)" stroke="rgb(0,0,0)" stroke-width="1" opacity="0.7529411764705882" d="M 359.5 826 L 369 826.5 L 359.5 827 L 359.5 826 Z " /><path fill="rgb(0,0,0)" stroke="rgb(0,0,0)" stroke-width="1" opacity="0.7529411764705882" d="M 405.5 826 L 417 826.5 L 405.5 827 L 405.5 826 Z " /><path fill="rgb(0,0,0)" stroke="rgb(0,0,0)" stroke-width="1" opacity="0.7529411764705882" d="M 379.5 827 L 395 827.5 L 379.5 828 L 379.5 827 Z " /><path fill="rgb(0,0,0)" stroke="rgb(0,0,0)" stroke-width="1" opacity="1" d="M 435.5 135 L 435 136.5 Q 400.1 194.1 378 264.5 L 371 292.5 L 366 320.5 L 365 341.5 L 364 342.5 L 364 370.5 L 365 371.5 L 365 381.5 L 366 382.5 L 368 400.5 L 372 416.5 L 381 439.5 Q 396.1 470.4 420.5 492 Q 446.9 516.6 486.5 528 L 507.5 533 L 526.5 535 L 527.5 536 L 537.5 536 L 538.5 537 L 590.5 537 L 591.5 536 L 603.5 536 L 604.5 535 L 613.5 535 L 614.5 534 L 635.5 532 L 686.5 522 L 705.5 516 L 773.5 499 L 822.5 485 L 837.5 482 L 871.5 472 L 886.5 469 L 935.5 455 L 950.5 452 L 999.5 438 L 1014.5 435 L 1063.5 421 L 1078.5 418 L 1161.5 395 L 1293.5 361 L 1327.5 351 L 1342.5 348 L 1376.5 338 L 1391.5 335 L 1425.5 325 L 1440.5 322 L 1444.5 320 L 1455.5 318 L 1459.5 316 L 1470.5 314 L 1474.5 312 L 1519.5 301 L 1523.5 299 L 1534.5 297 L 1538.5 295 L 1549.5 293 L 1553.5 291 L 1564.5 289 L 1568.5 287 L 1579.5 285 L 1583.5 283 L 1628.5 272 L 1632.5 270 L 1677.5 259 L 1681.5 257 L 1692.5 255 L 1696.5 253 L 1707.5 251 L 1711.5 249 L 1722.5 247 L 1726.5 245 L 1737.5 243 L 1741.5 241 L 1752.5 239 L 1756.5 237 L 1786.5 230 L 1790.5 228 L 1801.5 226 L 1805.5 224 L 1816.5 222 L 1820.5 220 L 1831.5 218 L 1835.5 216 L 1846.5 214 L 1850.5 212 L 1861.5 210 L 1865.5 208 L 1895.5 201 L 1899.5 199 L 1910.5 197 L 1914.5 195 L 1925.5 193 L 1929.5 191 L 1940.5 189 L 1944.5 187 L 2100.5 146 L 2100.5 147 L 645.5 769 L 571.5 795 L 499.5 814 L 462.5 821 L 441.5 823 L 440.5 824 L 432.5 824 L 431.5 825 L 405.5 826 L 404.5 827 L 369.5 827 L 368.5 826 L 355.5 826 L 354.5 825 L 346.5 825 L 345.5 824 L 338.5 824 L 321.5 821 L 301.5 816 L 278.5 808 Q 234.1 789.4 205 755.5 Q 180.4 728.6 167 690.5 L 159 654.5 L 158 632.5 L 157 631.5 L 157 612.5 L 158 611.5 L 158 597.5 L 159 596.5 L 159 587.5 L 160 586.5 L 162 567.5 L 173 521.5 L 185 486.5 L 198 455.5 L 229 395.5 Q 263.6 337.1 305 285.5 Q 367.3 207.3 435.5 135 Z " /></svg>